<?xml version="1.0" encoding="UTF-8"?>
<svg width="18px" height="12px" viewBox="0 0 18 12" version="1.1" xmlns="http://www.w3.org/2000/svg" xmlns:xlink="http://www.w3.org/1999/xlink">
    <!-- Generator: Sketch 51.2 (57519) - http://www.bohemiancoding.com/sketch -->
    <title>66831</title>
    <desc>Created with Sketch.</desc>
    <defs></defs>
    <g id="Page-1" stroke="none" stroke-width="1" fill="none" fill-rule="evenodd">
        <g id="launch_page_1" transform="translate(-283.000000, -21.000000)" fill="#FFFFFF" fill-rule="nonzero">
            <g id="Group-3" transform="translate(232.000000, 17.000000)">
                <g id="66831" transform="translate(51.000000, 4.000000)">
                    <path d="M17.7437844,5.45658065 L12.3906245,0.295290323 C12.0640149,-0.0196129032 11.5343197,-0.0196129032 11.20771,0.295290323 C10.8810335,0.610258065 10.8810335,1.12083871 11.20771,1.43580645 L15.1329814,5.2203871 L0.836431227,5.2203871 C0.374520446,5.2203871 0,5.58148387 0,6.02683871 C0,6.47212903 0.374520446,6.83329032 0.836431227,6.83329032 L15.1329814,6.83329032 L11.2078439,10.617871 C10.8811673,10.9328387 10.8811673,11.4434194 11.2078439,11.7583871 C11.3711152,11.9157419 11.5852416,11.9945806 11.7993011,11.9945806 C12.0133606,11.9945806 12.2274201,11.9157419 12.3907584,11.7583871 L17.7437844,6.59709677 C18.070461,6.28212903 18.070461,5.77154839 17.7437844,5.45658065 Z" id="Shape"></path>
                </g>
            </g>
        </g>
    </g>
</svg>