<?xml version="1.0" encoding="UTF-8"?>
<svg width="280px" height="200px" viewBox="0 0 280 200" version="1.1" xmlns="http://www.w3.org/2000/svg" xmlns:xlink="http://www.w3.org/1999/xlink">
    <!-- Generator: Sketch 51 (57462) - http://www.bohemiancoding.com/sketch -->
    <title>chat copy</title>
    <desc>Created with Sketch.</desc>
    <defs>
        <polygon id="path-1" points="0.0416129032 0.591977634 128.927177 0.591977634 128.927177 119.937801 0.0416129032 119.937801"></polygon>
        <polygon id="path-3" points="0.0416 0.350308594 155.755947 0.350308594 155.755947 178.358816 0.0416 178.358816"></polygon>
    </defs>
    <g id="desktop" stroke="none" stroke-width="1" fill="none" fill-rule="evenodd">
        <g id="how_it_works_page" transform="translate(-872.000000, -836.000000)">
            <rect fill="#FFFFFF" x="0" y="0" width="1440" height="2956"></rect>
            <g id="chat-copy" transform="translate(872.000000, 836.000000)">
                <g id="Group-3" transform="translate(0.000000, 80.000000)">
                    <mask id="mask-2" fill="white">
                        <use xlink:href="#path-1"></use>
                    </mask>
                    <g id="Clip-2"></g>
                    <path d="M128.927177,54.0733693 C128.927177,24.4618625 100.0825,0.591977634 64.4618548,0.591977634 C28.8446774,0.591977634 0,24.4590569 0,54.0733693 C0,83.6855776 28.8446774,106.670302 64.464629,106.670302 C67.5231774,106.670302 70.5824194,106.447959 73.6409677,106.006782 C86.9723548,116.615386 100.521516,120.149716 100.737903,119.928076 C95.9316129,115.067406 93.0901452,108.659459 91.3424032,102.691987 C113.630968,94.0725406 128.927177,75.7317548 128.927177,54.0733693 Z" id="Fill-1" fill="#FFA000" mask="url(#mask-2)"></path>
                </g>
                <path d="M76.2385587,125 C71.4184451,125 67.4750317,129.050303 67.4750317,134.001071 C67.4750317,138.949697 71.4184451,143 76.2385587,143 C81.0565867,143 85,138.949697 85,134.001071 C85,129.050303 81.0565867,125 76.2385587,125 Z M47.760746,125 C42.9434133,125 39,129.050303 39,134.001071 C39,138.949697 42.9434133,143 47.760746,143 C52.5815549,143 56.5249683,138.949697 56.5249683,134.001071 C56.5249683,129.050303 52.5815549,125 47.760746,125 Z" id="Fill-4" fill="#FFFFFF"></path>
                <path d="M186.001041,153.655674 C181.190811,153.655674 176.382662,153.435839 171.791678,152.77842 C152.990637,166.806124 134.628782,171.409443 134.409536,170.97186 C140.748938,164.395591 144.903512,156.066207 147.526832,147.736823 C114.736368,135.679286 92,108.719575 92,77.3756853 C92,34.6316768 134.19029,0 186.001041,0 C237.80971,0 280,34.6316768 280,77.3756853 C280,120.118998 237.80971,153.655674 186.001041,153.655674 Z" id="Fill-5" fill="#4A6BE2"></path>
                <path d="M187.001051,63 C179.713328,63 173.750263,68.8500516 173.750263,76.0003438 C173.750263,83.1499484 179.713328,89 187.001051,89 C194.286672,89 200.249737,83.1499484 200.249737,76.0003438 C200.249737,68.8500516 194.286672,63 187.001051,63 Z M226.751314,63 C219.463591,63 213.500526,68.8500516 213.500526,76.0003438 C213.500526,83.1499484 219.463591,89 226.751314,89 C234.036935,89 240,83.1499484 240,76.0003438 C240,68.8500516 234.036935,63 226.751314,63 Z M147.251489,63 C139.963065,63 134,68.8500516 134,76.0003438 C134,83.1499484 139.963065,89 147.251489,89 C154.539213,89 160.502278,83.1499484 160.502278,76.0003438 C160.502278,68.8500516 154.539213,63 147.251489,63 Z" id="Fill-6" fill="#FFFFFF"></path>
                <g id="Group-10" transform="translate(0.000000, 10.000000)">
                    <mask id="mask-4" fill="white">
                        <use xlink:href="#path-3"></use>
                    </mask>
                    <g id="Clip-8"></g>
                    <path d="M155.755947,135.179262 C123.207413,123.060402 100.487573,95.9628789 100.487573,64.4595781 C100.487573,37.8018633 116.653333,14.4493555 141.339467,0.350308594 C111.848533,13.3480859 91.7501867,39.1240859 91.7501867,68.8653555 C91.7501867,100.368656 114.47072,127.46548 147.019253,139.58434 C144.39776,147.735133 140.465173,156.10618 133.911093,162.937547 C134.130187,163.155703 148.11056,152.801672 155.755947,135.179262 Z" id="Fill-7" fill="#3455CC" mask="url(#mask-4)"></path>
                    <path d="M8.73738667,125.925102 C8.73738667,97.7270078 35.17072,74.5926562 68.8133333,72.8313242 L64.44464,72.6096719 C28.8357333,72.6096719 0,96.4026875 0,125.925102 C0,155.445418 28.8357333,178.358816 64.44464,178.358816 C65.7557333,178.358816 67.0661333,178.358816 68.59424,178.137164 C35.17072,176.15418 8.73738667,154.123195 8.73738667,125.925102 Z" id="Fill-9" fill="#E99200" mask="url(#mask-4)"></path>
                </g>
            </g>
        </g>
    </g>
</svg>