<?xml version="1.0" encoding="UTF-8"?>
<svg width="90px" height="91px" viewBox="0 0 90 91" version="1.1" xmlns="http://www.w3.org/2000/svg" xmlns:xlink="http://www.w3.org/1999/xlink">
    <!-- Generator: Sketch 51.2 (57519) - http://www.bohemiancoding.com/sketch -->
    <title>Group</title>
    <desc>Created with Sketch.</desc>
    <defs></defs>
    <g id="Page-1" stroke="none" stroke-width="1" fill="none" fill-rule="evenodd">
        <g id="launch_page_1" transform="translate(-115.000000, -161.000000)">
            <g id="Group" transform="translate(115.000000, 161.000000)">
                <path d="M84.9157926,80.2670758 L84.9157926,24.4716602 C84.9157926,22.7400764 83.6006654,21.393229 81.909863,21.393229 L8.64176125,21.393229 C6.9509589,21.393229 5.6358317,22.7400764 5.6358317,24.4716602 L5.6358317,80.2670758 L84.9157926,80.2670758" id="Fill-1" fill="#5D5D5D"></path>
                <polygon id="Fill-2" fill="#FFFFFF" points="11.4602935 73.2460861 78.9039335 73.2460861 78.9039335 27.4059687 11.4602935 27.4059687"></polygon>
                <path d="M0,82.6379648 C0,84.7044423 1.69080235,86.2074951 3.56953033,86.2074951 L86.4188454,86.2074951 C88.4853229,86.2074951 89.9883757,84.5166928 89.9883757,82.6379648 C89.9883757,80.5714873 88.2975734,79.0684344 86.4188454,79.0684344 L3.56953033,79.0684344 C1.69080235,78.8805088 0,80.5713112 0,82.6379648" id="Fill-3" fill="#323232"></path>
                <polyline id="Fill-4" fill="#424242" points="78.716184 90.5283757 11.4597652 90.5283757 6.57528376 86.207319 83.6006654 86.207319 78.716184 90.5283757"></polyline>
                <g id="Group-8" transform="translate(21.663405, 0.000000)">
                    <path d="M28.4970646,83.5772407 L18.3522505,83.5772407 C17.7886497,83.5772407 17.2250489,83.0136399 17.2250489,82.4500391 C17.2250489,81.8864384 17.7886497,81.3228376 18.3522505,81.3228376 L28.4970646,81.3228376 C29.0606654,81.3228376 29.6242661,81.8864384 29.6242661,82.4500391 C29.6242661,83.2015656 29.0606654,83.5772407 28.4970646,83.5772407" id="Fill-5" fill="#FFFFFF"></path>
                    <path d="M46.9079648,23.4598826 C46.9079648,9.55778865 34.8844227,-1.33855186 20.7944031,0.164324853 C9.89806262,1.29152642 1.25630137,10.3091389 0.129099804,21.0175538 C-0.810176125,30.223092 3.69863014,38.4891781 10.649589,42.9979843 C12.7160665,44.3131115 14.0311937,46.5675147 14.0311937,49.0096673 L14.0311937,58.0272798 L32.8179452,58.0272798 L32.8179452,49.0096673 C32.8179452,46.5673386 34.1330724,44.3129354 36.1995499,42.9979843 C42.5870841,39.0527789 46.9079648,31.7259687 46.9079648,23.4598826" id="Fill-7" fill="#FFA000"></path>
                </g>
                <path d="M51.0997456,61.9724853 L38.888454,61.9724853 C37.5733268,61.9724853 36.6340509,61.0332094 36.6340509,59.7180822 L36.6340509,58.402955 L53.3541487,58.402955 L53.3541487,59.7180822 C53.3541487,60.8452838 52.4148728,61.9724853 51.0997456,61.9724853" id="Fill-9" fill="#363636"></path>
                <path d="M55.0449511,50.5127202 L35.130998,50.5127202 C34.3794716,50.5127202 33.8158708,49.9491194 33.8158708,49.197593 C33.8158708,48.4460665 34.3794716,47.8824658 35.130998,47.8824658 L55.2327006,47.8824658 C55.984227,47.8824658 56.5478278,48.4460665 56.5478278,49.197593 C56.5478278,49.9491194 55.7964775,50.5127202 55.0449511,50.5127202" id="Fill-10" fill="#FF6A00"></path>
                <path d="M55.0449511,54.4579256 L35.130998,54.4579256 C34.3794716,54.4579256 33.8158708,53.8943249 33.8158708,53.1427984 C33.8158708,52.391272 34.3794716,51.8276712 35.130998,51.8276712 L55.2327006,51.8276712 C55.984227,51.8276712 56.5478278,52.391272 56.5478278,53.1427984 C56.5478278,53.8943249 55.7964775,54.4579256 55.0449511,54.4579256" id="Fill-11" fill="#FF6A00"></path>
                <path d="M55.0449511,58.2152055 L35.130998,58.2152055 C34.3794716,58.2152055 33.8158708,57.6516047 33.8158708,56.9000783 C33.8158708,56.1485519 34.3794716,55.5849511 35.130998,55.5849511 L55.2327006,55.5849511 C55.984227,55.5849511 56.5478278,56.1485519 56.5478278,56.9000783 C56.5478278,57.6516047 55.7964775,58.2152055 55.0449511,58.2152055" id="Fill-12" fill="#FF6A00"></path>
                <path d="M45.0880626,30.5987671 C41.3307828,30.5987671 38.1369276,27.4050881 38.1369276,23.6476321 C38.1369276,19.8901761 41.3306067,16.6964971 45.0880626,16.6964971 C48.8455186,16.6964971 52.0391977,19.8901761 52.0391977,23.6476321 C52.0391977,27.4050881 48.8453425,30.5987671 45.0880626,30.5987671 Z M58.4265558,23.6476321 C58.4265558,23.2719569 58.4265558,22.7083562 58.4265558,22.3325049 C59.3658317,21.7689041 60.3052838,21.0173777 61.2445597,20.4537769 C60.8688845,19.1386497 60.4930333,17.8236986 59.9294325,16.6964971 C58.8022309,16.6964971 57.6750294,16.6964971 56.5478278,16.8844227 C56.1721526,16.1328963 55.6085519,15.5692955 55.0449511,14.8179452 C55.4206262,13.6907436 55.7964775,12.7514677 56.1721526,11.6242661 C55.2328767,10.6849902 54.1056751,9.9334638 52.9784736,9.18193738 C52.0391977,9.9334638 51.2876712,10.4970646 50.3483953,11.2484149 C49.5968689,10.8727397 48.8455186,10.6848141 47.9060665,10.4968885 C47.5303914,9.36968689 47.3424658,8.43041096 46.9667906,7.30320939 C45.6516634,7.11528376 44.3367123,7.11528376 43.0215851,7.30320939 C42.64591,8.43041096 42.4579843,9.36968689 42.0823092,10.4968885 C41.3307828,10.6848141 40.3915068,10.8725636 39.6399804,11.2484149 C38.7007045,10.4968885 37.9491781,9.93328767 37.0099022,9.18193738 C35.8827006,9.9334638 34.755499,10.6848141 33.8162231,11.6242661 C34.1918982,12.7514677 34.5677495,13.6907436 34.9434247,14.8179452 C34.3798239,15.381546 33.8162231,16.1330724 33.4405479,16.8844227 C32.3133464,16.8844227 31.1861448,16.8844227 30.0589432,16.6964971 C29.4953425,18.0116243 29.1196673,19.1388258 28.743816,20.4537769 C29.683092,21.0173777 30.622544,21.7689041 31.56182,22.3325049 C31.56182,22.70818 31.56182,23.0840313 31.56182,23.6476321 C31.56182,24.0233072 31.56182,24.3991585 31.56182,24.9627593 C30.622544,25.5263601 29.683092,26.2778865 28.743816,26.8414873 C29.1194912,28.1566145 29.4953425,29.4715656 30.0589432,30.5987671 C31.1861448,30.5987671 32.3133464,30.5987671 33.4405479,30.4108415 C33.8162231,31.1623679 34.3798239,31.7259687 34.9434247,32.477319 C34.5677495,33.6045205 34.1918982,34.5437965 33.8162231,35.670998 C34.755499,36.610274 35.8827006,37.3618004 37.0099022,38.1133268 C37.9491781,37.3618004 38.7007045,36.7981996 39.6399804,36.0468493 C40.3915068,36.4225245 41.1428571,36.6104501 42.0823092,36.7983757 C42.4579843,37.9255773 42.64591,38.8648532 43.0215851,39.9920548 C44.3367123,40.1799804 45.6516634,40.1799804 46.9667906,39.9920548 C47.3424658,38.8648532 47.5303914,37.9255773 47.9060665,36.7983757 C48.657593,36.6104501 49.5968689,36.4227006 50.3483953,36.0468493 C51.2876712,36.7983757 52.0391977,37.3619765 52.9784736,38.1133268 C54.1056751,37.3618004 55.2328767,36.6104501 56.1721526,35.670998 C55.7964775,34.5437965 55.4206262,33.6045205 55.0449511,32.477319 C55.6085519,31.9137182 56.1721526,31.1621918 56.5478278,30.4108415 C57.6750294,30.4108415 58.8022309,30.4108415 59.9294325,30.5987671 C60.4930333,29.2836399 60.8687084,28.1564384 61.2445597,26.8414873 C60.3052838,26.2778865 59.3658317,25.5263601 58.4265558,24.9627593 C58.4265558,24.3991585 58.4265558,24.0234834 58.4265558,23.6476321 Z" id="Fill-13" fill="#E59000"></path>
                <path d="M49.4089432,27.9686888 C46.9666145,30.4110176 43.021409,30.4110176 40.5792564,27.9686888 C38.1369276,25.5263601 38.1369276,21.5811546 40.5792564,19.139002 C43.0215851,16.6968493 46.9667906,16.6966732 49.4089432,19.139002 C50.5361448,20.2662035 51.2876712,21.9570059 51.2876712,23.4598826 C51.2876712,24.9627593 50.7240705,26.8414873 49.4089432,27.9686888 Z M52.0390215,16.6966732 C48.2817417,12.9393933 42.0821331,12.9393933 38.3246771,16.6966732 C34.5672211,20.453953 34.5673973,26.6535616 38.3246771,30.4110176 C40.2034051,32.2897456 42.6455577,33.2290215 45.2758121,33.2290215 C47.7181409,33.2290215 50.3482192,32.2897456 52.2269472,30.4110176 C55.7964775,26.6535616 55.7964775,20.453953 52.0390215,16.6966732 Z" id="Fill-14" fill="#FFFFFE"></path>
            </g>
        </g>
    </g>
</svg>