<?xml version="1.0" encoding="UTF-8"?>
<svg width="85px" height="98px" viewBox="0 0 85 98" version="1.1" xmlns="http://www.w3.org/2000/svg" xmlns:xlink="http://www.w3.org/1999/xlink">
    <!-- Generator: Sketch 51.2 (57519) - http://www.bohemiancoding.com/sketch -->
    <title>Group</title>
    <desc>Created with Sketch.</desc>
    <defs>
        <polygon id="path-1" points="0.0113839286 0.0127120536 85 0.0127120536 85 84.7988839 0.0113839286 84.7988839"></polygon>
        <polygon id="path-3" points="0.0113839286 0.0127120536 84.9998103 0.0127120536 84.9998103 65.5841406 0.0113839286 65.5841406"></polygon>
    </defs>
    <g id="Page-1" stroke="none" stroke-width="1" fill="none" fill-rule="evenodd">
        <g id="launch_page_2" transform="translate(-118.000000, -156.000000)">
            <g id="Group" transform="translate(118.000000, 157.000000)">
                <g id="Group-4" transform="translate(0.000000, 12.142857)">
                    <mask id="mask-2" fill="white">
                        <use xlink:href="#path-1"></use>
                    </mask>
                    <g id="Clip-2"></g>
                    <path d="M85,4.06026786 C85,1.83414062 83.1785714,0.0127120536 80.9524442,0.0127120536 L4.0475558,0.0127120536 C1.82142857,0.0127120536 0,1.83414062 0,4.06026786 L0,57.0841406 L85,57.0841406 L85,4.06026786" id="Fill-1" fill="#5D5D5D" mask="url(#mask-2)"></path>
                    <path d="M71.8451116,82.3816964 L68.2022545,82.3816964 C64.7618415,82.3816964 62.1308259,79.7506808 62.1308259,76.3102679 L62.1308259,71.453125 L22.8689844,71.453125 L22.8689844,76.3102679 C22.8689844,79.7506808 20.2379688,82.3816964 16.7975558,82.3816964 L13.1546987,82.3816964 C12.5475558,82.3816964 11.9404129,82.9888393 11.9404129,83.5959821 C11.9404129,84.203125 12.5475558,84.8102679 13.1546987,84.8102679 L71.8451116,84.8102679 C72.4522545,84.8102679 73.0593973,84.203125 73.0593973,83.5959821 C73.0593973,82.9888393 72.4522545,82.3816964 71.8451116,82.3816964" id="Fill-3" fill="#323232" mask="url(#mask-2)"></path>
                </g>
                <polygon id="Fill-5" fill="#FFFFFE" points="6.07199777 62.9525558 78.9291406 62.9525558 78.9291406 18.2269978 6.07199777 18.2269978"></polygon>
                <g id="Group-9" transform="translate(0.000000, 18.214286)">
                    <mask id="mask-4" fill="white">
                        <use xlink:href="#path-3"></use>
                    </mask>
                    <g id="Clip-7"></g>
                    <polygon id="Fill-6" fill="#FFFFFF" mask="url(#mask-4)" points="6.07199777 44.7382701 78.9291406 44.7382701 78.9291406 0.0127120536 6.07199777 0.0127120536"></polygon>
                    <path d="M0,51.0127121 L0,61.5365848 C0,63.7627121 1.82142857,65.5841406 4.0475558,65.5841406 L80.9522545,65.5841406 C83.1783817,65.5841406 84.9998103,63.7627121 84.9998103,61.5365848 L84.9998103,51.0127121 L0,51.0127121" id="Fill-8" fill="#323232" mask="url(#mask-4)"></path>
                </g>
                <path d="M42.5005692,73.2739844 C44.2891741,73.2739844 45.7392969,74.7241071 45.7392969,76.5127121 C45.7392969,78.3015067 44.2891741,79.7514397 42.5005692,79.7514397 C40.7119643,79.7514397 39.2618415,78.3015067 39.2618415,76.5127121 C39.2618415,74.7241071 40.7119643,73.2739844 42.5005692,73.2739844" id="Fill-10" fill="#FFFFFF"></path>
                <polygon id="Fill-11" fill="#424242" points="22.8689844 86.8341406 61.9291406 86.8341406 61.9291406 83.7984263 22.8689844 83.7984263"></polygon>
                <path d="M20.6428571,0.0127120536 C18.4167299,0.0127120536 16.5953013,1.83412415 16.5953013,4.06023125 L16.5953013,62.9525558 L68.4046987,62.9525558 L68.4046987,10.3340473 L58.0832701,0.0127120536 L20.6428571,0.0127120536 Z" id="Fill-12" stroke="#5D5D5D" fill="#FFFFFF"></path>
                <path d="M58.0832701,7.9055692 C58.0832701,9.32229911 59.0951116,10.3341406 60.5118415,10.3341406 L68.4046987,10.3341406 L58.0832701,0.0127120536 L58.0832701,7.9055692" id="Fill-13" fill="#5D5D5D"></path>
                <polygon id="Fill-14" fill="#FFA000" points="24.6904129 19.0365848 35.6189844 19.0365848 35.6189844 8.10801339 24.6904129 8.10801339"></polygon>
                <polygon id="Fill-15" fill="#B7C4C9" points="24.6904129 36.037154 35.6189844 36.037154 35.6189844 25.1085826 24.6904129 25.1085826"></polygon>
                <polygon id="Fill-16" fill="#FFA000" points="24.6904129 53.037154 35.6189844 53.037154 35.6189844 42.1085826 24.6904129 42.1085826"></polygon>
                <polygon id="Fill-17" fill="#EDEDED" points="38.6546987 14.5847098 59.9046987 14.5847098 59.9046987 12.3585826 38.6546987 12.3585826"></polygon>
                <polygon id="Fill-18" fill="#EDEDED" points="38.6546987 31.5847098 59.9046987 31.5847098 59.9046987 29.3585826 38.6546987 29.3585826"></polygon>
                <polygon id="Fill-19" fill="#EDEDED" points="38.6546987 48.5847098 59.9046987 48.5847098 59.9046987 46.3585826 38.6546987 46.3585826"></polygon>
                <polyline id="Fill-20" fill="#FFFFFE" points="28.3332701 17.6198549 25.2975558 14.3816964 26.7142857 12.9651563 28.3332701 14.7865848 33.5951116 9.52455357 35.0118415 10.9412835 28.3332701 17.6198549"></polyline>
                <polyline id="Fill-21" fill="#FFFFFE" points="28.3332701 34.6198549 25.2975558 31.3816964 26.7142857 29.9651562 28.3332701 31.5841406 33.5951116 26.5245536 35.0118415 27.9412835 28.3332701 34.6198549"></polyline>
                <polyline id="Fill-22" fill="#FFFFFE" points="28.3332701 51.4174107 25.2975558 48.3816964 26.7142857 46.9651562 28.3332701 48.5841406 33.5951116 43.5245536 35.0118415 44.9412835 28.3332701 51.4174107"></polyline>
            </g>
        </g>
    </g>
</svg>