<?xml version="1.0" encoding="UTF-8"?>
<svg width="80px" height="79px" viewBox="0 0 80 79" version="1.1" xmlns="http://www.w3.org/2000/svg" xmlns:xlink="http://www.w3.org/1999/xlink">
    <!-- Generator: Sketch 51.2 (57519) - http://www.bohemiancoding.com/sketch -->
    <title>Group</title>
    <desc>Created with Sketch.</desc>
    <defs>
        <polygon id="path-1" points="0.009375 0.08171875 79.9507813 0.08171875 79.9507813 78.584375 0.009375 78.584375"></polygon>
    </defs>
    <g id="Page-1" stroke="none" stroke-width="1" fill="none" fill-rule="evenodd">
        <g id="launch_page_3" transform="translate(-120.000000, -167.000000)">
            <g id="Group" transform="translate(120.000000, 167.000000)">
                <g id="Group-5">
                    <mask id="mask-2" fill="white">
                        <use xlink:href="#path-1"></use>
                    </mask>
                    <g id="Clip-2"></g>
                    <path d="M22.8332812,42.2603125 C22.8332812,42.2603125 32.3332812,42.4270312 42.6665625,24.2603125 C42.6665625,24.2603125 46.3332813,19.7603125 48.6665625,6.4271875 C48.6665625,6.4271875 46.3332813,-0.2396875 52.4998438,0.09375 C52.4998438,0.09375 60.833125,2.76046875 57.4998438,14.5939062 C57.4998438,14.5939062 53.9998438,30.2604688 59.1665625,31.09375 C59.1665625,31.09375 79.8332813,31.9270312 79.8332813,37.7604687 C79.8332813,37.7604687 80.8332813,42.09375 77,44.9271875 C77,44.9271875 81.6667188,50.5939063 74.1667188,55.5939063 C74.1667188,55.5939063 77.6667188,61.4271875 71.6667188,65.5939063 C71.6667188,65.5939063 74.5,72.4271875 66,73.0939063 L22.8332812,73.0939063 L22.8332812,42.2603125" id="Fill-1" fill="#FFA000" mask="url(#mask-2)"></path>
                    <polygon id="Fill-3" stroke="#4A6BE2" fill="#FFFFFF" mask="url(#mask-2)" points="14.7692308 75.0934375 22.8339063 75.0934375 22.8339063 40.260625 14.7692308 40.260625"></polygon>
                    <path d="M3.33328125,78.59375 L13.3332813,78.59375 C15.1665625,78.59375 16.6665625,77.09375 16.6665625,75.2604688 L16.6665625,40.59375 C16.6665625,38.7604688 15.1665625,37.2604688 13.3332813,37.2604688 L3.33328125,37.2604688 C1.5,37.2603125 0,38.7603125 0,40.59375 L0,75.4270313 C0,77.09375 1.5,78.59375 3.33328125,78.59375" id="Fill-4" fill="#434343" mask="url(#mask-2)"></path>
                </g>
                <path d="M8.3328125,68.5934375 C9.9896875,68.5934375 11.3328125,69.9367188 11.3328125,71.5934375 C11.3328125,73.2503125 9.9896875,74.5934375 8.3328125,74.5934375 C6.6759375,74.5934375 5.3328125,73.2503125 5.3328125,71.5934375 C5.3328125,69.9367188 6.6759375,68.5934375 8.3328125,68.5934375" id="Fill-6" fill="#FFFFFE"></path>
            </g>
        </g>
    </g>
</svg>