<?xml version="1.0" encoding="UTF-8"?>
<svg width="380px" height="391px" viewBox="0 0 380 391" version="1.1" xmlns="http://www.w3.org/2000/svg" xmlns:xlink="http://www.w3.org/1999/xlink">
    <!-- Generator: Sketch 51.3 (57544) - http://www.bohemiancoding.com/sketch -->
    <title>growth</title>
    <desc>Created with Sketch.</desc>
    <defs>
        <polygon id="path-1" points="0.520049895 0.000367293948 199.742765 0.000367293948 199.742765 390.668378 0.520049895 390.668378"></polygon>
        <path d="M0.0233586115,120.121728 L16.0270736,120.121724 L30.158012,120.121724 L46.1617254,120.121724 C46.1617239,79.2001809 80.055085,45.9071864 122.00911,45.9071864 C163.963136,45.9071864 197.856497,79.2001809 197.856497,120.121728 L213.860219,120.121724 L227.991157,120.121724 L243.994871,120.121724 C243.994862,53.7184206 189.31531,0.00742942802 122.00911,0.00742942802 C54.7029104,0.00742942802 0.0233586115,53.7184206 0.0233586115,120.121728 Z" id="path-3"></path>
    </defs>
    <g id="desktop" stroke="none" stroke-width="1" fill="none" fill-rule="evenodd">
        <g id="about_us_page" transform="translate(-175.000000, -572.000000)">
            <g id="growth" transform="translate(175.000000, 572.000000)">
                <g id="Group-9" transform="translate(89.571429, 0.000000)">
                    <mask id="mask-2" fill="white">
                        <use xlink:href="#path-1"></use>
                    </mask>
                    <g id="Clip-2"></g>
                    <path d="M173.224691,360.18251 L27.0414833,360.18251 C23.7818994,360.18251 21.1387871,357.543209 21.1387871,354.286622 C21.1387871,351.030035 23.7811355,348.390734 27.0414833,348.390734 L173.225455,348.390734 C176.485038,348.390734 179.128151,351.030035 179.128151,354.286622 C179.127387,357.543209 176.485038,360.18251 173.224691,360.18251" id="Fill-1" fill="#D1DBE7" mask="url(#mask-2)"></path>
                    <path d="M181.304517,383.743934 C182.77809,389.114861 188.613563,392.102863 193.921177,389.981656 C198.415231,388.185497 200.66646,383.118254 199.386919,378.455413 L182.784201,315.568486 C182.781146,315.556278 182.769687,315.547885 182.757465,315.547885 L163.281699,315.547885 C163.263366,315.547885 163.250379,315.565434 163.254963,315.582984 L181.304517,383.743934" id="Fill-3" fill="#213FAD" mask="url(#mask-2)"></path>
                    <path d="M6.39541506,390.001495 C11.7183071,392.089129 17.4995423,389.072894 18.961657,383.743171 L37.0104473,315.582221 C37.0150307,315.564671 37.0020443,315.547122 36.9837106,315.547122 L17.5079453,315.547122 C17.4957228,315.547122 17.4842642,315.555515 17.4812086,315.567723 L0.874671554,378.469147 C-0.408689329,383.149538 1.87309576,388.228227 6.39541506,390.001495" id="Fill-4" fill="#213FAD" mask="url(#mask-2)"></path>
                    <path d="M191.789881,383.743934 L173.741091,315.582984 C173.736507,315.565434 173.749494,315.547885 173.767827,315.547885 L163.282463,315.547885 C163.26413,315.547885 163.251143,315.565434 163.255727,315.582984 L181.304517,383.743934 C182.77809,389.115624 188.614327,392.101337 193.921177,389.981656 C194.535357,389.735962 195.103702,389.424649 195.630797,389.066027 C193.817286,387.852056 192.4117,386.011641 191.789881,383.743934" id="Fill-5" fill="#4A6BE2" mask="url(#mask-2)"></path>
                    <path d="M11.3600355,378.469147 L27.9665726,315.56696 C27.9696282,315.555515 27.9810868,315.546359 27.9933092,315.546359 L17.5087092,315.546359 C17.4964867,315.546359 17.4850281,315.554752 17.4819725,315.56696 L0.875435459,378.469147 C-0.407925423,383.149538 1.87385967,388.228227 6.39541506,390.001495 C9.3333948,391.152898 12.5410331,390.791225 15.1199773,389.065264 C11.7939337,386.806713 10.2561924,382.493337 11.3600355,378.469147" id="Fill-6" fill="#4A6BE2" mask="url(#mask-2)"></path>
                    <path d="M109.552421,39.2728543 L109.552421,9.74763384 C109.552421,4.55220223 105.483862,0.082406611 100.283194,0.00152604835 C95.0122479,-0.0801175384 90.7137528,4.1630599 90.7137528,9.40885111 C90.7137528,9.45386954 90.6977108,39.3026123 90.7427812,39.3003232 C100.772858,38.7425525 109.552421,39.2728543 109.552421,39.2728543 L245.512583,25.0724631" id="Fill-7" fill="#213FAD" mask="url(#mask-2)"></path>
                    <path d="M102.322058,9.40961413 C102.322058,6.4292417 103.711601,3.77544362 105.876509,2.05177201 C104.331128,0.806516554 102.404559,0.0350991121 100.283194,0.00228907253 C95.0122479,-0.0793545143 90.7137528,4.16382293 90.7137528,9.40961413 C90.7137528,9.45463256 90.6977108,39.3033753 90.7427812,39.3010862 C95.5958715,39.0309757 98.7477447,39.0141891 102.322058,39.0630227 L102.322058,9.40961413" id="Fill-8" fill="#4A6BE2" mask="url(#mask-2)"></path>
                </g>
                <path d="M351.423592,317.6875 L28.5756464,317.6875 C23.2875915,317.6875 19,313.390867 19,308.089956 L19,73.3369387 C19,73.3231919 19.0106675,73.3125 19.024383,73.3125 L360.975617,73.3125 C360.98857,73.3125 361,73.3231919 361,73.3369387 L361,308.090719 C360.999238,313.390867 356.712408,317.6875 351.423592,317.6875" id="Fill-10" fill="#F1F1F1"></path>
                <g id="1-+-2-+-3-+-4-+-5-+-6-+-7-Mask" transform="translate(67.857143, 124.902778)">
                    <mask id="mask-4" fill="white">
                        <use xlink:href="#path-3"></use>
                    </mask>
                    <use id="Mask" fill="#979797" fill-rule="nonzero" xlink:href="#path-3"></use>
                    <polygon id="1" fill="#464646" mask="url(#mask-4)" points="174.50129 136.422164 -5.73457317 136.422164 -5.73457317 81.2559602"></polygon>
                    <polygon id="2" fill="#FE2F22" mask="url(#mask-4)" points="123.486729 122.027111 -5.73457317 82.3705407 22.3124203 35.7274889"></polygon>
                    <polygon id="3" fill="#FF7922" mask="url(#mask-4)" points="123.842419 121.391665 22.2945846 36.8952988 62.3041712 4.34513333"></polygon>
                    <polygon id="4" fill="#FEAD20" mask="url(#mask-4)" points="124.093889 121.291381 61.0124301 5.23185747 150.643361 -7.61403078"></polygon>
                    <polygon id="5" fill="#FAD30F" mask="url(#mask-4)" points="122.070506 124.497799 149.877129 -7.58025081 203.310291 23.6060485"></polygon>
                    <polygon id="6" fill="#AAD31E" mask="url(#mask-4)" points="125.345868 120.24209 203.368323 23.6166048 230.21655 60.6162254"></polygon>
                    <polygon id="7" fill="#56C624" mask="url(#mask-4)" points="92.7503223 139.333204 246.634151 49.6796525 257.084136 138.697132"></polygon>
                </g>
                <path d="M158.821311,257.902431 C155.982421,257.902431 153.543297,257.453655 151.503864,256.55609 C149.464432,255.658525 147.906329,254.410112 146.829508,252.810814 C145.752688,251.211517 145.214286,249.383775 145.214286,247.327535 C145.214286,245.499766 145.662954,243.876014 146.560304,242.456229 C147.457655,241.036444 148.673138,239.951222 150.206792,239.200532 C148.999448,238.449841 148.06948,237.478853 147.416862,236.287539 C146.764243,235.096226 146.437939,233.733579 146.437939,232.199559 C146.437939,229.327351 147.522901,227.018195 149.692857,225.272023 C151.862813,223.525851 154.905601,222.652778 158.821311,222.652778 C162.737022,222.652778 165.771652,223.517691 167.925293,225.247544 C170.078933,226.977397 171.155738,229.278393 171.155738,232.150601 C171.155738,233.684621 170.837591,235.047268 170.201288,236.238582 C169.564985,237.429895 168.643175,238.417202 167.435831,239.200532 C169.002116,239.951222 170.233914,241.036444 171.131265,242.456229 C172.028615,243.876014 172.477283,245.516085 172.477283,247.376493 C172.477283,249.432733 171.938881,251.252315 170.862061,252.835293 C169.785241,254.418272 168.21898,255.658525 166.163232,256.55609 C164.107484,257.453655 161.660202,257.902431 158.821311,257.902431 Z M158.821311,237.046386 C160.518119,237.013747 161.929385,236.581291 163.055152,235.749003 C164.180919,234.916715 164.743794,233.815175 164.743794,232.444348 C164.743794,231.040883 164.189077,229.914863 163.079625,229.066256 C161.970174,228.217649 160.55075,227.793352 158.821311,227.793352 C157.124504,227.793352 155.721395,228.217649 154.611944,229.066256 C153.502493,229.914863 152.947775,231.040883 152.947775,232.444348 C152.947775,233.847814 153.502493,234.965673 154.611944,235.797961 C155.721395,236.630249 157.124504,237.046386 158.821311,237.046386 Z M158.821311,252.761857 C160.746536,252.761857 162.353584,252.272283 163.642506,251.293121 C164.931427,250.313959 165.575878,249.008429 165.575878,247.376493 C165.575878,245.744556 164.931427,244.439027 163.642506,243.459865 C162.353584,242.480703 160.746536,241.991129 158.821311,241.991129 C156.896087,241.991129 155.297196,242.472543 154.02459,243.435386 C152.751984,244.398228 152.115691,245.711918 152.115691,247.376493 C152.115691,249.008429 152.751984,250.313959 154.02459,251.293121 C155.297196,252.272283 156.896087,252.761857 158.821311,252.761857 Z M189.951054,257.951389 C187.242687,257.951389 184.901454,257.494454 182.927283,256.580569 C180.953113,255.666685 179.46027,254.45907 178.448712,252.957688 C177.437153,251.456306 176.898751,249.840713 176.833489,248.110861 L176.833489,248.012945 C176.833489,247.751835 176.939538,247.531527 177.151639,247.352014 C177.36374,247.172501 177.600311,247.082746 177.861358,247.082746 L182.511241,247.082746 C183.261752,247.082746 183.734894,247.409128 183.930679,248.061903 C184.387512,249.498007 185.14617,250.55875 186.206674,251.244163 C187.267179,251.929577 188.515293,252.272278 189.951054,252.272278 C191.778385,252.272278 193.287543,251.717428 194.478571,250.607711 C195.6696,249.497994 196.265105,247.963997 196.265105,246.005673 C196.265105,244.243182 195.6696,242.815259 194.478571,241.721861 C193.287543,240.628464 191.778385,240.081773 189.951054,240.081773 C188.972126,240.081773 188.172681,240.212326 187.552693,240.473436 C186.932706,240.734546 186.329043,241.093566 185.741686,241.550509 C185.676424,241.583147 185.529587,241.681062 185.301171,241.844256 C185.072755,242.007449 184.868814,242.121683 184.689344,242.186961 C184.509874,242.252238 184.322249,242.284876 184.126464,242.284876 L179.525527,242.284876 C179.231849,242.284876 178.978963,242.178802 178.766862,241.96665 C178.554761,241.754499 178.448712,241.501552 178.448712,241.207804 L180.112881,224.513176 C180.145511,224.088873 180.300506,223.754331 180.577869,223.50954 C180.855232,223.26475 181.189694,223.142356 181.581265,223.142356 L199.985012,223.142356 C200.343952,223.142356 200.629468,223.248431 200.841569,223.460582 C201.05367,223.672734 201.159719,223.958319 201.159719,224.317345 L201.159719,227.646479 C201.159719,227.972866 201.05367,228.250291 200.841569,228.478762 C200.629468,228.707233 200.343952,228.821467 199.985012,228.821467 L185.839578,228.821467 L185.05644,236.752639 C185.806951,236.263058 186.671658,235.86324 187.650585,235.553172 C188.629513,235.243104 189.9021,235.088072 191.468384,235.088072 C193.589394,235.088072 195.555377,235.536848 197.366393,236.434413 C199.17741,237.331978 200.629464,238.621189 201.7226,240.302083 C202.815735,241.982978 203.362295,243.933113 203.362295,246.152547 C203.362295,248.535174 202.807578,250.615862 201.698126,252.394673 C200.588675,254.173484 199.022414,255.54429 196.999297,256.507132 C194.97618,257.469975 192.626789,257.951389 189.951054,257.951389 Z M221.423419,257.902431 C217.050876,257.902431 213.79599,256.694816 211.658665,254.27955 C209.52134,251.864284 208.354802,248.698374 208.159016,244.781727 C208.126385,243.900481 208.11007,242.399122 208.11007,240.277604 C208.11007,238.123448 208.126385,236.589451 208.159016,235.675566 C208.322171,231.824196 209.496867,228.690925 211.683138,226.275659 C213.86941,223.860393 217.116138,222.652778 221.423419,222.652778 C225.730701,222.652778 228.977429,223.860393 231.1637,226.275659 C233.349972,228.690925 234.524667,231.824196 234.687822,235.675566 C234.753084,237.503335 234.785714,239.037333 234.785714,240.277604 C234.785714,241.517876 234.753084,243.019235 234.687822,244.781727 C234.492036,248.698374 233.325499,251.864284 231.188173,254.27955 C229.050848,256.694816 225.795963,257.902431 221.423419,257.902431 Z M221.423419,252.174362 C223.446536,252.174362 224.963851,251.513438 225.97541,250.191569 C226.986968,248.869701 227.52537,246.984842 227.590632,244.536938 C227.623263,243.590414 227.639578,242.138013 227.639578,240.179689 C227.639578,238.221365 227.623263,236.801601 227.590632,235.920356 C227.52537,233.537728 226.986968,231.677348 225.97541,230.339161 C224.963851,229.000973 223.446536,228.315569 221.423419,228.282931 C219.400302,228.315569 217.882987,229.000973 216.871429,230.339161 C215.85987,231.677348 215.321468,233.537728 215.256206,235.920356 C215.223575,236.801601 215.20726,238.221365 215.20726,240.179689 C215.20726,242.138013 215.223575,243.590414 215.256206,244.536938 C215.321468,246.984842 215.85987,248.869701 216.871429,250.191569 C217.882987,251.513438 219.400302,252.174362 221.423419,252.174362 Z" id="850" fill="#464646"></path>
                <path d="M34.835558,307.799013 L34.835558,73.3377024 C34.835558,73.3231919 34.8463174,73.3125 34.860151,73.3125 L19.024593,73.3125 C19.0107594,73.3125 19,73.3231919 19,73.3377024 L19,307.799777 C19,313.260287 23.4543991,317.6875 28.9501563,317.6875 L44.7857143,317.6875 C39.2899572,317.686736 34.835558,313.260287 34.835558,307.799013" id="Fill-11" fill="#D9D9D9"></path>
                <path d="M370.821923,76.0277778 L9.17807697,76.0277778 C4.13059232,76.0277778 0,71.9247744 0,66.9100768 L0,44.4170699 C0,39.4023723 4.12982951,35.2986111 9.17807697,35.2986111 L370.821923,35.2986111 C375.869408,35.2986111 380,39.4016144 380,44.4170699 L380,66.9108346 C380,71.9247744 375.87017,76.0277778 370.821923,76.0277778" id="Fill-12" fill="#F8CE1C"></path>
                <path d="M370.544243,59.9246801 L9.45499438,59.9246801 C4.25493817,59.9246801 0,55.5630661 0,50.2326389 L0,66.3365185 C0,71.6677276 4.25493817,76.0277778 9.45499438,76.0277778 L370.545006,76.0277778 C375.745825,76.0277778 380,71.6669457 380,66.3365185 L380,50.2326389 C380,55.5630661 375.745062,59.9246801 370.544243,59.9246801" id="Fill-13" fill="#F3A936"></path>
            </g>
        </g>
    </g>
</svg>