<?xml version="1.0" encoding="UTF-8"?>
<svg width="270px" height="230px" viewBox="0 0 270 230" version="1.1" xmlns="http://www.w3.org/2000/svg" xmlns:xlink="http://www.w3.org/1999/xlink">
    <!-- Generator: Sketch 51 (57462) - http://www.bohemiancoding.com/sketch -->
    <title>handshake copy</title>
    <desc>Created with Sketch.</desc>
    <defs>
        <polygon id="path-1" points="0.031640625 0.392871094 192.45041 0.392871094 192.45041 196.268643 0.031640625 196.268643"></polygon>
        <polygon id="path-3" points="0.435585937 0.389707031 186.148125 0.389707031 186.148125 121.820466 0.435585937 121.820466"></polygon>
        <polygon id="path-5" points="0.246269531 0.363867187 55.2544189 0.363867187 55.2544189 55.3710938 0.246269531 55.3710938"></polygon>
    </defs>
    <g id="desktop" stroke="none" stroke-width="1" fill="none" fill-rule="evenodd">
        <g id="how_it_works_page" transform="translate(-872.000000, -1646.000000)">
            <rect fill="#FFFFFF" x="0" y="0" width="1440" height="2956"></rect>
            <g id="handshake-copy" transform="translate(872.000000, 1646.000000)">
                <path d="M77.5506445,176.275195 C72.9764648,180.84832 65.5614844,180.84832 60.9873047,176.275195 C56.4136523,171.701016 56.4136523,164.285508 60.9873047,159.711328 L103.678418,117.020215 C97.2706641,123.424805 86.8835742,123.423223 80.4774023,117.017051 L75.5166797,112.056328 L126.287227,61.2857813 C132.773555,54.7989258 142.110703,52.0483008 151.078184,53.9825977 L155.460938,54.928125 L185.356055,25.0335352 L245.35459,85.0325977 L215.460527,114.927187 L216.406055,119.310996 C218.340352,128.279004 215.589727,137.615098 209.102344,144.101953 L143.791875,209.412422 C139.148613,214.056211 131.459414,214.144805 126.905801,209.412949 C122.491934,204.827695 122.545195,197.532422 127.065586,193.013086 L110.67627,209.402402 C106.102617,213.976055 98.6871094,213.976055 94.1124023,209.402402 C89.53875,204.82875 89.5392773,197.41377 94.1124023,192.83959 C89.5392773,197.413242 82.1232422,197.413242 77.5495898,192.83959 C72.9754102,188.26541 72.9764648,180.84832 77.5506445,176.275195" id="Fill-1" fill="#C07A54"></path>
                <path d="M77.5506445,176.275195 C72.9764648,180.84832 65.5614844,180.84832 60.9873047,176.275195 L118.998809,118.263164 L127.279688,126.54457 L77.5506445,176.275195" id="Fill-2" fill="#AD6D4A"></path>
                <path d="M110.676797,209.40082 C106.103145,213.974473 98.6876367,213.974473 94.1129297,209.40082 L152.124434,151.389316 L160.40584,159.670723 L110.676797,209.40082" id="Fill-3" fill="#AD6D4A"></path>
                <path d="M143.631035,209.573262 C139.057383,214.146914 131.641348,214.146914 127.067695,209.573262 L168.687773,167.952656 L176.969707,176.234062 L143.631035,209.573262" id="Fill-4" fill="#AD6D4A"></path>
                <path d="M94.113457,192.838008 C89.540332,197.412188 82.1248242,197.412188 77.5506445,192.838008 L135.562148,134.826504 L143.843027,143.10791 L94.113457,192.838008" id="Fill-5" fill="#AD6D4A"></path>
                <path d="M192.45041,176.275195 C197.024062,180.84832 204.439043,180.84832 209.013223,176.275195 C213.587402,171.701016 213.587402,164.285508 209.013223,159.711328 L145.950293,96.6489258 C152.358574,103.053516 162.745137,103.051934 169.151309,96.6457617 L174.112559,91.6850391 L143.713828,61.2863086 C137.226445,54.7994531 127.890352,52.0488281 118.922871,53.983125 L114.53959,54.9286523 L84.6439453,25.0330078 L24.6448828,85.0320703 L54.5394727,114.92666 L53.5939453,119.310469 C51.6601758,128.278477 54.4108008,137.61457 60.8976562,144.101426 L136.49502,219.698789 C141.138281,224.342578 148.82748,224.431172 153.381621,219.699316 C157.794434,215.114063 157.741699,207.818789 153.221309,203.29998 L159.32373,209.401348 C163.896855,213.975 171.312891,213.975 175.88707,209.401348 C180.46125,204.827695 180.460723,197.412715 175.88707,192.838008 C180.460723,197.412188 187.87623,197.412188 192.45041,192.838008 C197.024062,188.264355 197.024062,180.84832 192.45041,176.275195" id="Fill-6" fill="#F4C396"></path>
                <path d="M192.45041,176.275195 C197.024063,180.84832 204.439043,180.84832 209.013223,176.275195 L151.001719,118.263164 L142.720313,126.54457 L192.45041,176.275195" id="Fill-7" fill="#F0A97E"></path>
                <path d="M159.324258,209.40082 C163.897383,213.974473 171.313418,213.974473 175.887598,209.40082 L117.875039,151.389844 L109.593633,159.67125 L159.324258,209.40082" id="Fill-8" fill="#F0A97E"></path>
                <path d="M136.520859,219.724629 C141.094512,224.298281 148.647656,224.435918 153.221309,219.862266 L101.312754,167.953184 L93.0313477,176.23459 L136.520859,219.724629" id="Fill-9" fill="#F0A97E"></path>
                <g id="Group-14">
                    <mask id="mask-2" fill="white">
                        <use xlink:href="#path-1"></use>
                    </mask>
                    <g id="Clip-11"></g>
                    <path d="M175.88707,192.838008 C180.460723,197.412188 187.875703,197.412188 192.45041,192.838008 L134.438906,134.826504 L126.1575,143.10791 L175.88707,192.838008" id="Fill-10" fill="#F0A97E" mask="url(#mask-2)"></path>
                    <polyline id="Fill-12" fill="#4A6BE2" mask="url(#mask-2)" points="34.5926953 109.678008 0 75.0858398 74.6924414 0.392871094 109.285137 34.9855664 34.5926953 109.678008"></polyline>
                    <polyline id="Fill-13" fill="#3455CC" mask="url(#mask-2)" points="34.5926953 109.679063 0 75.0868945 37.3480664 37.7388281 71.9407617 72.3309961 34.5926953 109.679063"></polyline>
                </g>
                <path d="M155.461465,54.9275977 L151.078184,53.9820703 C142.110703,52.0477734 132.773555,54.7983984 126.287227,61.2852539 L75.5166797,112.055801 L80.4774023,117.017051 C86.8835742,123.423223 97.2706641,123.424277 103.678418,117.019688 L134.397246,86.3008594 L144.066094,95.969707 C152.447695,104.351309 166.035762,104.351309 174.417891,95.969707 L185.460996,84.9266016 L155.461465,54.9275977" id="Fill-15" fill="#C07A54"></path>
                <g id="Group-20" transform="translate(83.847656, 0.000000)">
                    <mask id="mask-4" fill="white">
                        <use xlink:href="#path-3"></use>
                    </mask>
                    <g id="Clip-17"></g>
                    <path d="M36.2353711,84.052793 L46.9093359,73.3788281 L62.1485156,88.6185352 C69.0683203,95.5383398 80.3286914,95.5383398 87.2484961,88.6185352 L126.171211,49.695293 L136.845703,60.3692578 L97.9224609,99.2925 C85.1169727,112.097988 64.2805664,112.097988 51.4750781,99.2925 L44.5173047,92.3341992 L19.8312891,117.020215 C14.5778906,122.270449 6.65138672,123.212813 0.435585937,119.852578 L36.2353711,84.052793" id="Fill-16" fill="#AD6D4A" mask="url(#mask-4)"></path>
                    <polyline id="Fill-18" fill="#FFA000" mask="url(#mask-4)" points="76.8614063 34.9824023 111.453574 0.389707031 186.146016 75.0821484 151.55332 109.674844 76.8614063 34.9824023"></polyline>
                    <polyline id="Fill-19" fill="#E99200" mask="url(#mask-4)" points="114.207891 72.3294141 148.800586 37.7372461 186.148652 75.0853125 151.555957 109.678008 114.207891 72.3294141"></polyline>
                </g>
                <path d="M96.0013477,157.823965 L77.7373242,176.087988 C73.0945898,180.730723 72.9822656,188.44207 77.7125391,192.996738 C82.297793,197.411133 89.5941211,197.357871 94.1139844,192.83748 L112.565215,174.387305 C117.138867,169.813652 117.138867,162.39709 112.565215,157.823437 C107.990508,153.250312 100.574473,153.250312 96.0013477,157.823965" id="Fill-21" fill="#C07A54"></path>
                <path d="M112.564688,157.824492 L77.5511719,192.838008 C82.1248242,197.412188 89.540332,197.412188 94.113457,192.838008 L112.564688,174.387305 C117.13834,169.81418 117.13834,162.398145 112.564688,157.824492" id="Fill-22" fill="#AD6D4A"></path>
                <path d="M79.4380078,141.261152 L61.1739844,159.525176 C56.53125,164.168437 56.4183984,171.879785 61.1491992,176.433398 C65.7339258,180.847793 73.0302539,180.795059 77.5511719,176.275195 L96.0013477,157.823965 C100.575527,153.250312 100.575527,145.834277 96.0013477,141.260625 C91.4276953,136.6875 84.0116602,136.6875 79.4380078,141.261152" id="Fill-23" fill="#C07A54"></path>
                <path d="M96.0013477,141.261152 L60.987832,176.275195 C65.5614844,180.84832 72.9764648,180.84832 77.5511719,176.275195 L96.0013477,157.823965 C100.574473,153.250313 100.574473,145.834805 96.0013477,141.261152" id="Fill-24" fill="#AD6D4A"></path>
                <path d="M112.56416,174.387305 L94.2996094,192.651328 C89.6574023,197.294062 89.5450781,205.00541 94.2753516,209.559551 C98.8600781,213.973945 106.156934,213.921211 110.677324,209.40082 L129.1275,190.950645 C133.70168,186.376465 133.70168,178.960957 129.1275,174.387305 C124.553848,169.81418 117.13834,169.81418 112.56416,174.387305" id="Fill-25" fill="#C07A54"></path>
                <g id="Group-30" transform="translate(93.867188, 174.023438)">
                    <mask id="mask-6" fill="white">
                        <use xlink:href="#path-5"></use>
                    </mask>
                    <g id="Clip-27"></g>
                    <path d="M35.2597852,0.363867187 L0.246269531,35.3773828 C4.82044922,39.9510352 12.235957,39.9510352 16.8096094,35.3773828 L35.2597852,16.927207 C39.8339648,12.3530273 39.8339648,4.93751953 35.2597852,0.363867187" id="Fill-26" fill="#AD6D4A" mask="url(#mask-6)"></path>
                    <path d="M35.2597852,16.9277344 L16.9962891,35.1912305 C12.3530273,39.8339648 12.2412305,47.5453125 16.9715039,52.0994531 C21.5567578,56.5138477 28.8530859,56.4611133 33.3734766,51.9407227 L51.8241797,33.4900195 C56.397832,28.9163672 56.397832,21.5013867 51.8241797,16.927207 C47.2489453,12.3530273 39.8339648,12.3530273 35.2597852,16.9277344" id="Fill-28" fill="#C07A54" mask="url(#mask-6)"></path>
                    <path d="M51.8236523,16.9277344 L16.8101367,51.9407227 C21.3832617,56.514375 28.7987695,56.514375 33.3729492,51.9407227 L51.8236523,33.4900195 C56.3973047,28.9163672 56.3973047,21.5013867 51.8236523,16.9277344" id="Fill-29" fill="#AD6D4A" mask="url(#mask-6)"></path>
                </g>
            </g>
        </g>
    </g>
</svg>