<?xml version="1.0" encoding="UTF-8"?>
<svg width="12px" height="16px" viewBox="0 0 12 16" version="1.1" xmlns="http://www.w3.org/2000/svg" xmlns:xlink="http://www.w3.org/1999/xlink">
    <!-- Generator: Sketch 51.2 (57519) - http://www.bohemiancoding.com/sketch -->
    <title>126479</title>
    <desc>Created with Sketch.</desc>
    <defs></defs>
    <g id="Page-1" stroke="none" stroke-width="1" fill="none" fill-rule="evenodd" opacity="0.291294643">
        <g id="login_page" transform="translate(-263.000000, -229.000000)" fill="#000000" fill-rule="nonzero">
            <g id="Group-2" transform="translate(15.000000, 149.000000)">
                <g id="126479" transform="translate(248.000000, 80.000000)">
                    <path d="M11.1057851,6.9553719 L10.8710744,6.9553719 L10.8710744,4.87603306 C10.8710744,2.18842975 8.68595041,0 5.99504132,0 C3.30743802,0 1.11900826,2.18512397 1.11900826,4.87603306 C1.11900826,5.12396694 1.31735537,5.32231405 1.56528926,5.32231405 C1.81322314,5.32231405 2.01157025,5.12396694 2.01157025,4.87603306 C2.01157025,2.68099174 3.79669421,0.892561983 5.99504132,0.892561983 C8.19008264,0.892561983 9.9785124,2.67768595 9.9785124,4.87603306 L9.9785124,6.9553719 L0.887603306,6.9553719 C0.411570248,6.9553719 0.0247933884,7.34214876 0.0247933884,7.81818182 L0.0247933884,13.3752066 C0.0247933884,14.8 1.18512397,15.9603306 2.60991736,15.9603306 L9.38347107,15.9603306 C10.8082645,15.9603306 11.968595,14.8 11.968595,13.3752066 L11.968595,7.81818182 C11.968595,7.34214876 11.5818182,6.9553719 11.1057851,6.9553719 Z M11.0760331,13.3752066 C11.0760331,14.307438 10.3190083,15.0677686 9.38347107,15.0677686 L2.61322314,15.0677686 C1.68099174,15.0677686 0.920661157,14.3107438 0.920661157,13.3752066 L0.920661157,7.84793388 L11.0760331,7.84793388 L11.0760331,13.3752066 Z" id="Shape"></path>
                    <path d="M5.99834711,13.1933884 C6.92066116,13.1933884 7.6677686,12.4429752 7.6677686,11.5239669 C7.6677686,10.6016529 6.91735537,9.85454545 5.99834711,9.85454545 C5.07603306,9.85454545 4.32892562,10.6049587 4.32892562,11.5239669 C4.32892562,12.4429752 5.07603306,13.1933884 5.99834711,13.1933884 Z M5.99834711,10.7438017 C6.42809917,10.7438017 6.77520661,11.0942149 6.77520661,11.5206612 C6.77520661,11.9471074 6.42809917,12.3008264 5.99834711,12.3008264 C5.56859504,12.3008264 5.2214876,11.9504132 5.2214876,11.5239669 C5.2214876,11.0975207 5.56859504,10.7438017 5.99834711,10.7438017 Z" id="Shape"></path>
                </g>
            </g>
        </g>
    </g>
</svg>