<?xml version="1.0" encoding="UTF-8"?>
<svg width="14px" height="17px" viewBox="0 0 14 17" version="1.1" xmlns="http://www.w3.org/2000/svg" xmlns:xlink="http://www.w3.org/1999/xlink">
    <!-- Generator: Sketch 51.2 (57519) - http://www.bohemiancoding.com/sketch -->
    <title>126486</title>
    <desc>Created with Sketch.</desc>
    <defs></defs>
    <g id="Page-1" stroke="none" stroke-width="1" fill="none" fill-rule="evenodd" opacity="0.291294643">
        <g id="login_page" transform="translate(-262.000000, -175.000000)" fill="#000000" fill-rule="nonzero">
            <g id="Group-2" transform="translate(15.000000, 149.000000)">
                <g id="126486" transform="translate(247.000000, 26.000000)">
                    <path d="M6.93868613,8.86326034 C6.95571776,8.86326034 6.97274939,8.86326034 6.99318735,8.86326034 C7,8.86326034 7.00681265,8.86326034 7.0136253,8.86326034 C7.02384428,8.86326034 7.03746959,8.86326034 7.04768856,8.86326034 C8.04574209,8.84622871 8.85304136,8.49537713 9.44914842,7.8243309 C10.7605839,6.3459854 10.5425791,3.81167883 10.5187348,3.56982968 C10.4335766,1.75425791 9.57518248,0.885644769 8.86666667,0.480291971 C8.33868613,0.177128954 7.72214112,0.0136253041 7.03406326,0 L7.01021898,0 C7.00681265,0 7,0 6.99659367,0 L6.97615572,0 C6.59805353,0 5.85547445,0.0613138686 5.14355231,0.466666667 C4.42822384,0.872019465 3.55620438,1.7406326 3.47104623,3.56982968 C3.44720195,3.81167883 3.22919708,6.3459854 4.5406326,7.8243309 C5.13333333,8.49537713 5.9406326,8.84622871 6.93868613,8.86326034 Z M4.38053528,3.65498783 C4.38053528,3.64476886 4.38394161,3.63454988 4.38394161,3.62773723 C4.49635036,1.18540146 6.23017032,0.923114355 6.97274939,0.923114355 L6.9863747,0.923114355 C6.99318735,0.923114355 7.00340633,0.923114355 7.0136253,0.923114355 C7.93333333,0.943552311 9.49683698,1.31824818 9.60243309,3.62773723 C9.60243309,3.6379562 9.60243309,3.64817518 9.60583942,3.65498783 C9.60924574,3.67883212 9.84768856,5.99513382 8.76447689,7.21459854 C8.33527981,7.69829684 7.76301703,7.93673966 7.01021898,7.94355231 C7.00340633,7.94355231 7,7.94355231 6.99318735,7.94355231 C6.9863747,7.94355231 6.98296837,7.94355231 6.97615572,7.94355231 C6.22676399,7.93673966 5.65109489,7.69829684 5.22530414,7.21459854 C4.14549878,6.00194647 4.37712895,3.67542579 4.38053528,3.65498783 Z" id="Shape"></path>
                    <path d="M13.9931873,13.0666667 C13.9931873,13.0632603 13.9931873,13.059854 13.9931873,13.0564477 C13.9931873,13.0291971 13.989781,13.0019465 13.989781,12.9712895 C13.9693431,12.296837 13.9250608,10.719708 12.4467153,10.2155718 C12.4364964,10.2121655 12.422871,10.2087591 12.4126521,10.2053528 C10.876399,9.8136253 9.59902676,8.92798054 9.58540146,8.91776156 C9.37761557,8.77128954 9.09148418,8.82238443 8.94501217,9.03017032 C8.79854015,9.2379562 8.84963504,9.52408759 9.05742092,9.67055961 C9.11532847,9.71143552 10.4710462,10.6549878 12.1673966,11.0909976 C12.9610706,11.3737226 13.049635,12.2218978 13.0734793,12.9985401 C13.0734793,13.0291971 13.0734793,13.0564477 13.0768856,13.0836983 C13.080292,13.3902676 13.059854,13.863747 13.0053528,14.136253 C12.453528,14.449635 10.2905109,15.5328467 7,15.5328467 C3.72311436,15.5328467 1.54647202,14.4462287 0.991240876,14.1328467 C0.936739659,13.8603406 0.912895377,13.3868613 0.919708029,13.080292 C0.919708029,13.0530414 0.923114355,13.0257908 0.923114355,12.9951338 C0.946958637,12.2184915 1.03552311,11.3703163 1.82919708,11.0875912 C3.52554745,10.6515815 4.88126521,9.70462287 4.93917275,9.66715328 C5.14695864,9.52068127 5.19805353,9.23454988 5.05158151,9.02676399 C4.90510949,8.8189781 4.6189781,8.76788321 4.41119221,8.91435523 C4.39756691,8.92457421 3.1270073,9.81021898 1.58394161,10.2019465 C1.5703163,10.2053528 1.56009732,10.2087591 1.54987835,10.2121655 C0.0715328467,10.719708 0.0272506083,12.296837 0.00681265207,12.9678832 C0.00681265207,12.9985401 0.00681265207,13.0257908 0.00340632603,13.0530414 C0.00340632603,13.0564477 0.00340632603,13.059854 0.00340632603,13.0632603 C-3.44385978e-15,13.2403893 -0.00340632603,14.1498783 0.177128954,14.606326 C0.211192214,14.6948905 0.272506083,14.7698297 0.354257908,14.8209246 C0.456447689,14.8890511 2.90559611,16.4491484 7.00340633,16.4491484 C11.1012165,16.4491484 13.550365,14.8856448 13.6525547,14.8209246 C13.7309002,14.7698297 13.7956204,14.6948905 13.8296837,14.606326 C14,14.1532847 13.9965937,13.2437956 13.9931873,13.0666667 Z" id="Shape"></path>
                </g>
            </g>
        </g>
    </g>
</svg>