<?xml version="1.0" encoding="UTF-8"?>
<svg width="296px" height="251px" viewBox="0 0 296 251" version="1.1" xmlns="http://www.w3.org/2000/svg" xmlns:xlink="http://www.w3.org/1999/xlink">
    <!-- Generator: Sketch 51 (57462) - http://www.bohemiancoding.com/sketch -->
    <title>id-card copy</title>
    <desc>Created with Sketch.</desc>
    <defs>
        <polygon id="path-1" points="0 0.221276596 256.669787 0.221276596 256.669787 221.276596 0 221.276596"></polygon>
        <polygon id="path-3" points="0 0 86 0 86 86 0 86"></polygon>
    </defs>
    <g id="desktop" stroke="none" stroke-width="1" fill="none" fill-rule="evenodd">
        <g id="how_it_works_page" transform="translate(-222.000000, -478.000000)">
            <rect fill="#FFFFFF" x="0" y="0" width="1440" height="2956"></rect>
            <g id="id-card-copy" transform="translate(222.000000, 478.000000)">
                <g id="Group-4">
                    <mask id="mask-2" fill="white">
                        <use xlink:href="#path-1"></use>
                    </mask>
                    <g id="Clip-2"></g>
                    <path d="M154.893617,44.2553191 L154.893617,65 C154.893617,68.1974468 152.299149,70.8140426 149.079574,70.8140426 L107.590213,70.8140426 C104.392766,70.8140426 101.77617,68.1974468 101.77617,65 L101.77617,44.2553191 L16.2693617,44.2553191 C7.28,44.2553191 0,51.5353191 0,60.5246809 L0,205.007234 C0,213.996596 7.28,221.276596 16.2693617,221.276596 L240.400426,221.276596 C249.389787,221.276596 256.669787,213.996596 256.669787,205.007234 L256.669787,60.5246809 C256.669787,51.5353191 249.389787,44.2553191 240.400426,44.2553191 L154.893617,44.2553191 Z" id="Fill-1" fill="#F0F1F2" mask="url(#mask-2)"></path>
                    <path d="M149.079574,0 L107.590213,0 C104.392766,0 101.77617,2.59446809 101.77617,5.81404255 L101.77617,65 C101.77617,68.1974468 104.392766,70.8140426 107.590213,70.8140426 L149.079574,70.8140426 C152.299149,70.8140426 154.893617,68.1974468 154.893617,65 L154.893617,5.81404255 C154.893617,2.59446809 152.299149,0 149.079574,0 Z M128.334894,39.8242553 C121.010638,39.8242553 115.069362,33.8829787 115.069362,26.5587234 C115.069362,19.2123404 121.010638,13.2655319 128.334894,13.2655319 C135.681277,13.2655319 141.628085,19.2123404 141.628085,26.5587234 C141.628085,33.8829787 135.681277,39.8242553 128.334894,39.8242553 Z" id="Fill-3" fill="#444444" mask="url(#mask-2)"></path>
                </g>
                <path d="M98.1914894,168.850638 L81.507234,160.337021 C80.3842553,159.75617 79.6485106,158.588936 79.6485106,157.316596 L79.6485106,152.21617 C88.206383,148.520851 93.1353191,141.368085 95.5361702,132.400851 C99.1429787,131.294468 101.77617,127.94766 101.77617,123.99234 L101.77617,119.561277 C101.77617,116.170213 99.8344681,113.254894 97.0242553,111.761277 C95.0604255,95.1212766 84.0574468,88.3834043 66.3829787,88.3834043 C65.5421277,88.3834043 64.7178723,88.4 63.9212766,88.4885106 C57.913617,88.9642553 51.8174468,87.8191489 46.8276596,84.4502128 C44.7531915,83.067234 42.9995745,81.573617 41.7714894,79.9970213 C41.207234,79.2834043 40.0842553,79.7370213 40.1948936,80.6442553 C40.366383,82.1987234 40.626383,83.9965957 41.013617,85.9825532 C42.4851064,93.3289362 41.6165957,92.2502128 38.7676596,99.187234 C37.1910638,103.009787 36.1731915,107.269362 35.7195745,111.761277 C32.9093617,113.277021 30.9897872,116.19234 30.9897872,119.561277 L30.9897872,123.99234 C30.9897872,127.94766 33.6229787,131.294468 37.2297872,132.400851 C39.6306383,141.368085 44.5595745,148.520851 53.1174468,152.21617 L53.1174468,157.27234 C53.1174468,158.566809 52.3817021,159.75617 51.2144681,160.337021 L34.1208511,168.745532 C29.4519149,171.295745 26.5587234,176.180426 26.5587234,181.496596 L26.5587234,187.349362 C26.5587234,192.361277 44.3825532,194.806383 66.3829787,194.806383 C88.3834043,194.806383 106.207234,192.361277 106.207234,187.349362 L106.207234,181.839574 C106.207234,176.351915 103.098298,171.317872 98.1914894,168.850638 Z" id="Fill-5" fill="#4A6BE2"></path>
                <path d="M226.98,173.890213 C226.183404,174.708936 225.70766,175.87617 225.70766,177.021277 C225.70766,178.166383 226.139149,179.311489 226.98,180.15234 C227.826383,180.954468 228.971489,181.45234 230.138723,181.45234 C231.28383,181.45234 232.428936,180.954468 233.269787,180.15234 C234.066383,179.311489 234.542128,178.166383 234.542128,177.021277 C234.542128,175.87617 234.066383,174.708936 233.269787,173.890213 C231.626809,172.291489 228.667234,172.247234 226.98,173.890213 Z" id="Fill-6" fill="#929292"></path>
                <path d="M132.765957,106.295745 L177.021277,106.295745 C179.460851,106.295745 181.45234,104.304255 181.45234,101.864681 C181.45234,99.4251064 179.460851,97.433617 177.021277,97.433617 L132.765957,97.433617 C130.326383,97.433617 128.334894,99.4251064 128.334894,101.864681 C128.334894,104.304255 130.326383,106.295745 132.765957,106.295745 Z" id="Fill-7" fill="#929292"></path>
                <path d="M137.197021,172.678723 L132.765957,172.678723 C130.326383,172.678723 128.334894,174.642553 128.334894,177.109787 C128.334894,179.549362 130.326383,181.513191 132.765957,181.513191 L137.197021,181.513191 C139.636596,181.513191 141.628085,179.549362 141.628085,177.109787 C141.628085,174.642553 139.636596,172.678723 137.197021,172.678723 Z" id="Fill-8" fill="#929292"></path>
                <path d="M163.755745,172.678723 L154.893617,172.678723 C152.454043,172.678723 150.462553,174.642553 150.462553,177.109787 C150.462553,179.549362 152.454043,181.513191 154.893617,181.513191 L163.755745,181.513191 C166.195319,181.513191 168.159149,179.549362 168.159149,177.109787 C168.159149,174.642553 166.195319,172.678723 163.755745,172.678723 Z" id="Fill-9" fill="#929292"></path>
                <path d="M185.883404,172.678723 L181.45234,172.678723 C179.007234,172.678723 177.021277,174.642553 177.021277,177.109787 C177.021277,179.549362 179.007234,181.513191 181.45234,181.513191 L185.883404,181.513191 C188.322979,181.513191 190.286809,179.549362 190.286809,177.109787 C190.286809,174.642553 188.322979,172.678723 185.883404,172.678723 Z" id="Fill-10" fill="#929292"></path>
                <path d="M212.414468,172.678723 L203.58,172.678723 C201.134894,172.678723 199.148936,174.642553 199.148936,177.109787 C199.148936,179.549362 201.134894,181.513191 203.58,181.513191 L212.414468,181.513191 C214.881702,181.513191 216.845532,179.549362 216.845532,177.109787 C216.845532,174.642553 214.881702,172.678723 212.414468,172.678723 Z" id="Fill-11" fill="#929292"></path>
                <path d="M132.765957,132.854468 L230.138723,132.854468 C232.578298,132.854468 234.542128,130.862979 234.542128,128.423404 C234.542128,125.978298 232.578298,123.99234 230.138723,123.99234 L132.765957,123.99234 C130.326383,123.99234 128.334894,125.978298 128.334894,128.423404 C128.334894,130.862979 130.326383,132.854468 132.765957,132.854468 Z" id="Fill-12" fill="#929292"></path>
                <path d="M230.138723,150.551064 L132.765957,150.551064 C130.326383,150.551064 128.334894,152.514894 128.334894,154.982128 C128.334894,157.421702 130.326383,159.385532 132.765957,159.385532 L230.138723,159.385532 C232.578298,159.385532 234.542128,157.421702 234.542128,154.982128 C234.542128,152.514894 232.578298,150.551064 230.138723,150.551064 Z" id="Fill-13" fill="#929292"></path>
                <g id="Group-8" transform="translate(210.000000, 165.000000)">
                    <circle id="Oval" fill="#FFFFFF" cx="43" cy="43" r="40"></circle>
                    <g id="checked-4">
                        <mask id="mask-4" fill="white">
                            <use xlink:href="#path-3"></use>
                        </mask>
                        <g id="Clip-2"></g>
                        <path d="M35.1119585,65.0881085 L16.1784014,46.1553577 L22.4889152,39.8446423 L35.1119585,52.4668793 L63.5108832,24.0671484 L69.8215986,30.3776622 L35.1119585,65.0881085 Z M42.9998992,0 C19.2528318,0 0,19.2520256 0,42.9998992 C0,66.7479744 19.2528318,86 42.9998992,86 C66.7497885,86 86,66.7479744 86,42.9998992 C86,19.2520256 66.7487807,0 42.9998992,0 Z" id="Fill-1" fill="#FFA000" mask="url(#mask-4)"></path>
                    </g>
                </g>
            </g>
        </g>
    </g>
</svg>