<?xml version="1.0" encoding="UTF-8"?>
<svg width="165px" height="25px" viewBox="0 0 165 25" version="1.1" xmlns="http://www.w3.org/2000/svg" xmlns:xlink="http://www.w3.org/1999/xlink">
    <!-- Generator: Sketch 51.2 (57519) - http://www.bohemiancoding.com/sketch -->
    <title>Group 12</title>
    <desc>Created with Sketch.</desc>
    <defs></defs>
    <g id="Page-1" stroke="none" stroke-width="1" fill="none" fill-rule="evenodd">
        <g id="login_page" transform="translate(-78.000000, -91.000000)" fill="#FFFFFF">
            <g id="Group-12" transform="translate(78.000000, 91.000000)">
                <path d="M42.0069157,19.3422391 C39.9395058,19.3422391 38.3166857,18.8434659 37.1384067,17.8459045 C35.9601276,16.8483431 35.3348539,15.3881664 35.2625669,13.4653307 C35.2481095,13.0749805 35.2408809,12.438864 35.2408809,11.5569619 C35.2408809,10.6606023 35.2481095,10.0100286 35.2625669,9.60522103 C35.3348539,7.7257575 35.9673562,6.27642372 37.1600927,5.25717619 C38.3528291,4.23792866 39.9684207,3.72831254 42.0069157,3.72831254 C43.2936254,3.72831254 44.4465867,3.93794187 45.4658342,4.35720681 C46.4850817,4.77647175 47.2910703,5.38367393 47.8838242,6.17883158 C48.4765781,6.97398922 48.7874078,7.91370689 48.8163226,8.99801277 C48.8163226,9.12812948 48.7693367,9.23655844 48.6753635,9.32330291 C48.5813904,9.41004738 48.4693471,9.45341896 48.3392304,9.45341896 L45.2598171,9.45341896 C45.0574133,9.45341896 44.9092271,9.41366168 44.8152539,9.33414591 C44.7212807,9.25463015 44.6381519,9.1064439 44.5658648,8.88958272 C44.363461,8.18116955 44.0562456,7.68601063 43.6442094,7.4040911 C43.2321732,7.12217157 42.6864141,6.98121392 42.0069157,6.98121392 C40.3732282,6.98121392 39.5274823,7.89201719 39.4696526,9.71365107 C39.4551952,10.1040012 39.4479666,10.7039748 39.4479666,11.5135898 C39.4479666,12.3232049 39.4551952,12.9376357 39.4696526,13.3569006 C39.5274823,15.1785345 40.3732282,16.0893378 42.0069157,16.0893378 C42.6719567,16.0893378 43.2177158,15.9447658 43.6442094,15.6556176 C44.0707031,15.3664694 44.3779184,14.8749247 44.5658648,14.180969 C44.6236944,13.9641078 44.703209,13.8159215 44.8044109,13.7364058 C44.9056128,13.65689 45.0574133,13.6171327 45.2598171,13.6171327 L48.3392304,13.6171327 C48.4693471,13.6171327 48.5813904,13.6605043 48.6753635,13.7472488 C48.7693367,13.8339932 48.8163226,13.9424222 48.8163226,14.0725389 C48.7874078,15.1568448 48.4765781,16.0965625 47.8838242,16.8917201 C47.2910703,17.6868778 46.4850817,18.2940799 45.4658342,18.7133449 C44.4465867,19.1326098 43.2936254,19.3422391 42.0069157,19.3422391 Z M51.3318997,19.1253791 C51.1873255,19.1253791 51.0608251,19.0711646 50.9523945,18.962734 C50.8439639,18.8543034 50.7897494,18.7278029 50.7897494,18.5832288 L50.7897494,8.41249052 C50.7897494,8.25345899 50.8403496,8.11972994 50.9415515,8.01129935 C51.0427534,7.90286877 51.1728681,7.84865428 51.3318997,7.84865428 L53.9775928,7.84865428 C54.1366243,7.84865428 54.2703534,7.90286877 54.3787839,8.01129935 C54.4872145,8.11972994 54.541429,8.25345899 54.541429,8.41249052 L54.541429,9.23655887 C54.9462365,8.78837911 55.4197097,8.44502073 55.9618626,8.20647344 C56.5040156,7.96792614 57.1076034,7.84865428 57.7726444,7.84865428 L58.7485148,7.84865428 C58.9075463,7.84865428 59.0376611,7.89925447 59.138863,8.00045635 C59.2400648,8.10165823 59.290665,8.23177298 59.290665,8.39080451 L59.290665,10.7545795 C59.290665,10.8991536 59.2400648,11.0256541 59.138863,11.1340847 C59.0376611,11.2425153 58.9075463,11.2967297 58.7485148,11.2967297 L56.5582279,11.2967297 C55.9799314,11.2967297 55.5353727,11.4557589 55.2245383,11.7738219 C54.913704,12.091885 54.7582891,12.540058 54.7582891,13.1183545 L54.7582891,18.5832288 C54.7582891,18.7422604 54.7040746,18.8723751 54.595644,18.973577 C54.4872135,19.0747789 54.3534844,19.1253791 54.1944529,19.1253791 L51.3318997,19.1253791 Z M66.0783859,19.3422391 C64.3145817,19.3422391 62.926691,18.868766 61.9146721,17.9218055 C60.9026533,16.9748451 60.3821943,15.5977973 60.3532795,13.7906208 L60.3532795,13.1183545 C60.4111091,11.3979225 60.9460253,10.0534034 61.9580442,9.08475681 C62.970063,8.11611022 64.3362679,7.63179419 66.0566999,7.63179419 C67.3000373,7.63179419 68.3517982,7.8811808 69.2120142,8.37996151 C70.0722302,8.87874221 70.7155754,9.56545897 71.142069,10.4401324 C71.5685627,11.3148058 71.7818063,12.3087379 71.7818063,13.4219586 L71.7818063,13.9641089 C71.7818063,14.1231404 71.7275918,14.2568695 71.6191612,14.3653 C71.5107306,14.4737306 71.3770016,14.5279451 71.2179701,14.5279451 L64.3435052,14.5279451 L64.3435052,14.6580612 C64.3579626,15.3086447 64.5097631,15.832718 64.7989114,16.2302968 C65.0880596,16.6278757 65.5000896,16.8266621 66.0350139,16.8266621 C66.3819918,16.8266621 66.6602928,16.7579904 66.8699252,16.620645 C67.0795577,16.4832996 67.2783441,16.3061989 67.4662905,16.0893378 C67.5964072,15.9447637 67.7012218,15.8544062 67.7807376,15.8182627 C67.8602534,15.7821191 67.9867538,15.7640476 68.1602428,15.7640476 L71.00111,15.7640476 C71.1312267,15.7640476 71.2432699,15.8038049 71.3372431,15.8833207 C71.4312163,15.9628364 71.4782022,16.0604225 71.4782022,16.1760818 C71.4782022,16.5519745 71.2649586,16.992919 70.8384649,17.4989284 C70.4119713,18.0049378 69.7903119,18.4386536 68.9734681,18.8000889 C68.1566244,19.1615242 67.1916066,19.3422391 66.0783859,19.3422391 Z M67.7915806,12.3159722 L67.7915806,12.2726002 C67.7915806,11.5786444 67.6397801,11.0401139 67.3361744,10.6569925 C67.0325688,10.2738711 66.6060815,10.0823132 66.0566999,10.0823132 C65.5073182,10.0823132 65.0844453,10.2738711 64.7880683,10.6569925 C64.4916914,11.0401139 64.3435052,11.5786444 64.3435052,12.2726002 L64.3435052,12.3159722 L67.7915806,12.3159722 Z M77.9623189,19.3422391 C76.55995,19.3422391 75.4575889,18.9012947 74.6552025,18.0193926 C73.8528162,17.1374905 73.4227146,15.8797145 73.364885,14.246027 L73.343199,13.4870167 L73.364885,12.7063203 C73.4227146,11.1304625 73.8564305,9.890758 74.6660455,8.98716977 C75.4756606,8.08358153 76.5744074,7.63179419 77.9623189,7.63179419 C79.263486,7.63179419 80.3116326,8.05105284 81.1067902,8.88958272 L81.1067902,4.27046277 C81.1067902,4.11143124 81.1610047,3.98131649 81.2694353,3.88011461 C81.3778659,3.77891272 81.5043664,3.72831254 81.6489405,3.72831254 L84.4464357,3.72831254 C84.6054672,3.72831254 84.7391962,3.77891272 84.8476268,3.88011461 C84.9560574,3.98131649 85.0102719,4.11143124 85.0102719,4.27046277 L85.0102719,18.5832288 C85.0102719,18.7422604 84.9560574,18.8723751 84.8476268,18.973577 C84.7391962,19.0747789 84.6054672,19.1253791 84.4464357,19.1253791 L81.8658006,19.1253791 C81.7212265,19.1253791 81.594726,19.0711646 81.4862954,18.962734 C81.3778648,18.8543034 81.3236503,18.7278029 81.3236503,18.5832288 L81.3236503,17.9109625 C80.5429501,18.8651517 79.4225175,19.3422391 77.9623189,19.3422391 Z M79.2201074,16.3278839 C79.8417762,16.3278839 80.3044064,16.1290974 80.608012,15.7315186 C80.9116177,15.3339398 81.0778754,14.8315523 81.1067902,14.224341 C81.1357051,13.8195335 81.1501623,13.5448467 81.1501623,13.4002726 C81.1501623,13.2412411 81.1357051,12.973783 81.1067902,12.5978903 C81.0778754,12.0340512 80.9080034,11.5678067 80.597169,11.1991427 C80.2863347,10.8304787 79.8273187,10.6461495 79.2201074,10.6461495 C78.5695239,10.6461495 78.1032794,10.8377073 77.8213599,11.2208287 C77.5394403,11.6039501 77.3767969,12.135252 77.3334247,12.8147504 L77.3117386,13.4870167 L77.3334247,14.159283 C77.3767969,14.8387813 77.5394403,15.3700832 77.8213599,15.7532046 C78.1032794,16.136326 78.5695239,16.3278839 79.2201074,16.3278839 Z M88.0246272,6.28726162 C87.8655956,6.28726162 87.7354809,6.23304714 87.634279,6.12461656 C87.5330771,6.01618597 87.4824769,5.88245692 87.4824769,5.72342539 L87.4824769,3.70662653 C87.4824769,3.547595 87.5366914,3.41386595 87.645122,3.30543536 C87.7535526,3.19700478 87.8800531,3.1427903 88.0246272,3.1427903 L90.7353783,3.1427903 C90.8944098,3.1427903 91.0281389,3.19700478 91.1365695,3.30543536 C91.2450001,3.41386595 91.2992146,3.547595 91.2992146,3.70662653 L91.2992146,5.72342539 C91.2992146,5.88245692 91.2450001,6.01618597 91.1365695,6.12461656 C91.0281389,6.23304714 90.8944098,6.28726162 90.7353783,6.28726162 L88.0246272,6.28726162 Z M88.0246272,19.1253791 C87.8800531,19.1253791 87.7535526,19.0711646 87.645122,18.962734 C87.5366914,18.8543034 87.4824769,18.7278029 87.4824769,18.5832288 L87.4824769,8.39080451 C87.4824769,8.23177298 87.5366914,8.10165823 87.645122,8.00045635 C87.7535526,7.89925447 87.8800531,7.84865428 88.0246272,7.84865428 L90.7353783,7.84865428 C90.8944098,7.84865428 91.0281389,7.89925447 91.1365695,8.00045635 C91.2450001,8.10165823 91.2992146,8.23177298 91.2992146,8.39080451 L91.2992146,18.5832288 C91.2992146,18.7422604 91.2450001,18.8723751 91.1365695,18.973577 C91.0281389,19.0747789 90.8944098,19.1253791 90.7353783,19.1253791 L88.0246272,19.1253791 Z M99.6917001,19.1253791 C96.6267288,19.1253791 95.0942662,17.6868882 95.0942662,14.8098632 L95.0942662,10.7979515 L93.3810714,10.7979515 C93.2364973,10.7979515 93.1099969,10.7437371 93.0015663,10.6353065 C92.8931357,10.5268759 92.8389212,10.4003754 92.8389212,10.2558013 L92.8389212,8.39080451 C92.8389212,8.23177298 92.8931357,8.10165823 93.0015663,8.00045635 C93.1099969,7.89925447 93.2364973,7.84865428 93.3810714,7.84865428 L95.0942662,7.84865428 L95.0942662,4.27046277 C95.0942662,4.11143124 95.1484806,3.98131649 95.2569112,3.88011461 C95.3653418,3.77891272 95.4918423,3.72831254 95.6364164,3.72831254 L98.3037955,3.72831254 C98.462827,3.72831254 98.5929418,3.77891272 98.6941437,3.88011461 C98.7953456,3.98131649 98.8459457,4.11143124 98.8459457,4.27046277 L98.8459457,7.84865428 L101.556697,7.84865428 C101.715728,7.84865428 101.849457,7.89925447 101.957888,8.00045635 C102.066319,8.10165823 102.120533,8.23177298 102.120533,8.39080451 L102.120533,10.2558013 C102.120533,10.4148328 102.066319,10.5449476 101.957888,10.6461495 C101.849457,10.7473513 101.715728,10.7979515 101.556697,10.7979515 L98.8459457,10.7979515 L98.8459457,14.4845731 C98.8459457,14.9905825 98.9399175,15.3736982 99.1278639,15.6339316 C99.3158102,15.894165 99.6194113,16.0242797 100.038676,16.0242797 L101.751871,16.0242797 C101.910903,16.0242797 102.041017,16.0784942 102.142219,16.1869248 C102.243421,16.2953554 102.294021,16.4290844 102.294021,16.588116 L102.294021,18.5832288 C102.294021,18.7278029 102.243421,18.8543034 102.142219,18.962734 C102.041017,19.0711646 101.910903,19.1253791 101.751871,19.1253791 L99.6917001,19.1253791 Z M109.407032,19.3422391 C108.279354,19.3422391 107.299879,19.1579099 106.468578,18.7892459 C105.637277,18.4205819 105.00116,17.9398802 104.560209,17.3471263 C104.119258,16.7543724 103.884329,16.1182558 103.855414,15.4387575 C103.855414,15.3230982 103.898785,15.2218978 103.98553,15.1351534 C104.072274,15.0484089 104.180703,15.0050373 104.31082,15.0050373 L104.74454,15.0050373 C105.004774,15.0050373 105.163803,15.1496093 105.221632,15.4387575 C105.322834,16.1327133 105.720407,16.7399154 106.414363,17.2603823 C107.108319,17.7808491 108.105865,18.0410786 109.407032,18.0410786 C110.780486,18.0410786 111.803333,17.791692 112.475603,17.2929113 C113.147872,16.7941306 113.484002,16.0965709 113.484002,15.2002114 C113.484002,14.6508297 113.321358,14.1990424 112.996067,13.8448358 C112.670775,13.4906292 112.197302,13.1797995 111.575633,12.9123374 C110.953964,12.6448753 110.014247,12.3087455 108.756452,11.903938 C107.643231,11.5425027 106.772185,11.1883014 106.143288,10.8413235 C105.51439,10.4943457 105.048146,10.0678584 104.74454,9.56184901 C104.440935,9.0558396 104.289134,8.41249443 104.289134,7.63179419 C104.289134,6.89446619 104.48792,6.22943523 104.885499,5.63668135 C105.283078,5.04392747 105.857752,4.57768293 106.609537,4.23793376 C107.361322,3.89818458 108.257669,3.72831254 109.298602,3.72831254 C110.368451,3.72831254 111.286483,3.91987037 112.052725,4.30299179 C112.818968,4.6861132 113.397256,5.17042922 113.787606,5.7559544 C114.177956,6.34147958 114.387586,6.93061027 114.4165,7.52336415 C114.4165,7.63902344 114.376743,7.74022381 114.297227,7.82696828 C114.217712,7.91371275 114.105668,7.95708433 113.961094,7.95708433 L113.527374,7.95708433 C113.426172,7.95708433 113.324972,7.92455564 113.22377,7.85949729 C113.122568,7.79443894 113.064739,7.68239568 113.050282,7.52336415 C112.963537,6.80049356 112.576807,6.20413427 111.89008,5.73426839 C111.203353,5.26440251 110.339536,5.02947309 109.298602,5.02947309 C108.185381,5.02947309 107.299878,5.24633102 106.642066,5.68005337 C105.984254,6.11377572 105.655353,6.76434949 105.655353,7.63179419 C105.655353,8.19563325 105.803539,8.66187779 106.099916,9.03054178 C106.396293,9.39920578 106.840851,9.71726407 107.433605,9.98472619 C108.026359,10.2521883 108.90102,10.5738609 110.057612,10.9497536 C111.24312,11.3256463 112.168381,11.6870762 112.833422,12.0340541 C113.498463,12.3810319 114.00085,12.8002906 114.340599,13.2918426 C114.680348,13.7833946 114.850221,14.4195112 114.850221,15.2002114 C114.850221,16.5013784 114.365904,17.5169964 113.397258,18.2470957 C112.428611,18.977195 111.098549,19.3422391 109.407032,19.3422391 Z M118.189866,23.2457208 C118.045292,23.2457208 117.929634,23.2023492 117.84289,23.1156047 C117.756145,23.0288603 117.712774,22.9132027 117.712774,22.7686286 L117.712774,8.32574649 C117.712774,8.18117237 117.756145,8.06551481 117.84289,7.97877034 C117.929634,7.89202587 118.045292,7.84865428 118.189866,7.84865428 L118.558528,7.84865428 C118.703102,7.84865428 118.81876,7.89202587 118.905504,7.97877034 C118.992249,8.06551481 119.03562,8.18117237 119.03562,8.32574649 L119.03562,9.34498892 C119.87415,8.20285339 121.088555,7.63179419 122.67887,7.63179419 C124.24027,7.63179419 125.393232,8.12695312 126.137788,9.11728582 C126.882345,10.1076185 127.276304,11.3256372 127.319676,12.7713784 C127.334133,12.9159525 127.341362,13.1544962 127.341362,13.4870167 C127.341362,13.8195371 127.334133,14.0580809 127.319676,14.202655 C127.276304,15.6483961 126.882345,16.8664148 126.137788,17.8567475 C125.393232,18.8470802 124.24027,19.3422391 122.67887,19.3422391 C121.103012,19.3422391 119.888608,18.7711799 119.03562,17.6290444 L119.03562,22.7686286 C119.03562,22.9132027 118.992249,23.0288603 118.905504,23.1156047 C118.81876,23.2023492 118.703102,23.2457208 118.558528,23.2457208 L118.189866,23.2457208 Z M122.548754,18.0844506 C123.719804,18.0844506 124.576393,17.7121778 125.118546,16.9676211 C125.660699,16.2230644 125.953457,15.2652753 125.996829,14.0942249 C126.011287,13.9496508 126.018515,13.7472501 126.018515,13.4870167 C126.018515,12.1424774 125.758286,11.0401163 125.237819,10.1799003 C124.717352,9.31968427 123.821006,8.88958272 122.548754,8.88958272 C121.406618,8.88958272 120.546415,9.26908409 119.968119,10.0280982 C119.389822,10.7871123 119.078993,11.6798441 119.03562,12.7063203 L119.013934,13.5520747 L119.03562,14.3978291 C119.050078,15.0194978 119.187421,15.6086284 119.447654,16.1652388 C119.707888,16.7218492 120.098232,17.1808651 120.618699,17.5423004 C121.139166,17.9037357 121.782511,18.0844506 122.548754,18.0844506 Z M130.767751,19.1253791 C130.623177,19.1253791 130.50752,19.0820075 130.420775,18.995263 C130.334031,18.9085185 130.290659,18.792861 130.290659,18.6482868 L130.290659,8.3474325 C130.290659,8.20285838 130.334031,8.08358652 130.420775,7.98961334 C130.50752,7.89564017 130.623177,7.84865428 130.767751,7.84865428 L131.114727,7.84865428 C131.259302,7.84865428 131.378573,7.89564017 131.472547,7.98961334 C131.56652,8.08358652 131.613506,8.20285838 131.613506,8.3474325 L131.613506,9.34498892 C132.133972,8.34742751 133.117062,7.84865428 134.562803,7.84865428 L135.365185,7.84865428 C135.509759,7.84865428 135.625417,7.89202587 135.712161,7.97877034 C135.798906,8.06551481 135.842277,8.18117237 135.842277,8.32574649 L135.842277,8.62935061 C135.842277,8.77392473 135.798906,8.88958229 135.712161,8.97632676 C135.625417,9.06307123 135.509759,9.10644282 135.365185,9.10644282 L134.432687,9.10644282 C133.565242,9.10644282 132.878525,9.35944373 132.372516,9.86545314 C131.866507,10.3714625 131.613506,11.0581793 131.613506,11.925624 L131.613506,18.6482868 C131.613506,18.792861 131.56652,18.9085185 131.472547,18.995263 C131.378573,19.0820075 131.259302,19.1253791 131.114727,19.1253791 L130.767751,19.1253791 Z M138.075936,5.5282513 C137.931362,5.5282513 137.815705,5.48487972 137.72896,5.39813525 C137.642216,5.31139078 137.598844,5.19573322 137.598844,5.0511591 L137.598844,4.22709075 C137.598844,4.08251664 137.642216,3.96324478 137.72896,3.8692716 C137.815705,3.77529843 137.931362,3.72831254 138.075936,3.72831254 L138.900005,3.72831254 C139.044579,3.72831254 139.163851,3.77529843 139.257824,3.8692716 C139.351797,3.96324478 139.398783,4.08251664 139.398783,4.22709075 L139.398783,5.0511591 C139.398783,5.19573322 139.351797,5.31139078 139.257824,5.39813525 C139.163851,5.48487972 139.044579,5.5282513 138.900005,5.5282513 L138.075936,5.5282513 Z M138.314482,19.1253791 C138.169908,19.1253791 138.054251,19.0820075 137.967506,18.995263 C137.880762,18.9085185 137.83739,18.792861 137.83739,18.6482868 L137.83739,8.32574649 C137.83739,8.18117237 137.880762,8.06551481 137.967506,7.97877034 C138.054251,7.89202587 138.169908,7.84865428 138.314482,7.84865428 L138.683145,7.84865428 C138.827719,7.84865428 138.943376,7.89202587 139.030121,7.97877034 C139.116865,8.06551481 139.160237,8.18117237 139.160237,8.32574649 L139.160237,18.6482868 C139.160237,18.792861 139.116865,18.9085185 139.030121,18.995263 C138.943376,19.0820075 138.827719,19.1253791 138.683145,19.1253791 L138.314482,19.1253791 Z M143.150462,19.1253791 C143.005888,19.1253791 142.890231,19.0820075 142.803486,18.995263 C142.716742,18.9085185 142.67337,18.792861 142.67337,18.6482868 L142.67337,8.32574649 C142.67337,8.18117237 142.716742,8.06551481 142.803486,7.97877034 C142.890231,7.89202587 143.005888,7.84865428 143.150462,7.84865428 L143.519125,7.84865428 C143.663699,7.84865428 143.779356,7.89202587 143.866101,7.97877034 C143.952845,8.06551481 143.996217,8.18117237 143.996217,8.32574649 L143.996217,9.34498892 C144.429939,8.78114986 144.925098,8.35466261 145.481708,8.06551438 C146.038319,7.77636614 146.757564,7.63179419 147.639466,7.63179419 C149.056293,7.63179419 150.147811,8.08358153 150.914054,8.98716977 C151.680297,9.890758 152.063412,11.0581765 152.063412,12.4894602 L152.063412,18.6482868 C152.063412,18.792861 152.020041,18.9085185 151.933296,18.995263 C151.846552,19.0820075 151.730894,19.1253791 151.58632,19.1253791 L151.217658,19.1253791 C151.073084,19.1253791 150.957426,19.0820075 150.870682,18.995263 C150.783937,18.9085185 150.740566,18.792861 150.740566,18.6482868 L150.740566,12.5978903 C150.740566,11.4268399 150.455036,10.5160367 149.883968,9.86545314 C149.312901,9.21486961 148.492455,8.88958272 147.422606,8.88958272 C146.381673,8.88958272 145.550384,9.21848391 144.928715,9.87629614 C144.307047,10.5341084 143.996217,11.4412974 143.996217,12.5978903 L143.996217,18.6482868 C143.996217,18.792861 143.952845,18.9085185 143.866101,18.995263 C143.779356,19.0820075 143.663699,19.1253791 143.519125,19.1253791 L143.150462,19.1253791 Z M159.675201,23.8963011 C158.547523,23.8963011 157.643949,23.7011289 156.96445,23.3107788 C156.284952,22.9204287 155.811479,22.47587 155.544017,21.9770893 C155.276555,21.4783086 155.142826,21.0409784 155.142826,20.6650857 C155.142826,20.534969 155.189811,20.42654 155.283785,20.3397956 C155.377758,20.2530511 155.489801,20.2096795 155.619918,20.2096795 L155.923522,20.2096795 C156.053639,20.2096795 156.158453,20.2422082 156.237969,20.3072666 C156.317485,20.3723249 156.386156,20.4915968 156.443986,20.6650857 C156.892166,21.9807102 157.933084,22.6385125 159.566771,22.6385125 C160.810109,22.6385125 161.728141,22.3818973 162.320895,21.8686592 C162.913648,21.3554211 163.210021,20.4410035 163.210021,19.1253791 L163.210021,17.6290444 C162.371491,18.7711799 161.157087,19.3422391 159.566771,19.3422391 C158.005371,19.3422391 156.85241,18.832623 156.107853,17.8133755 C155.363296,16.794128 154.969338,15.5544235 154.925965,14.0942249 L154.904279,13.4870167 L154.925965,12.8798084 C154.969338,11.4196098 155.363296,10.1799054 156.107853,9.16065784 C156.85241,8.14141031 158.005371,7.63179419 159.566771,7.63179419 C161.142629,7.63179419 162.357034,8.20285339 163.210021,9.34498892 L163.210021,8.3474325 C163.210021,8.20285838 163.253393,8.08358652 163.340137,7.98961334 C163.426881,7.89564017 163.542539,7.84865428 163.687113,7.84865428 L164.034089,7.84865428 C164.178663,7.84865428 164.297935,7.89564017 164.391908,7.98961334 C164.485882,8.08358652 164.532868,8.20285838 164.532868,8.3474325 L164.532868,18.908519 C164.532868,20.455462 164.171438,21.6734807 163.448567,22.5626115 C162.725696,23.4517423 161.467921,23.8963011 159.675201,23.8963011 Z M159.696887,18.0844506 C160.839023,18.0844506 161.699226,17.7049492 162.277523,16.9459351 C162.855819,16.186921 163.166649,15.2941892 163.210021,14.267713 C163.224478,14.1231389 163.231707,13.8629094 163.231707,13.4870167 C163.231707,13.111124 163.224478,12.8508945 163.210021,12.7063203 C163.166649,11.6798441 162.855819,10.7871123 162.277523,10.0280982 C161.699226,9.26908409 160.839023,8.88958272 159.696887,8.88958272 C158.525837,8.88958272 157.669248,9.26185549 157.127095,10.0064122 C156.584942,10.7509689 156.292184,11.7087581 156.248812,12.8798084 L156.227126,13.4870167 L156.248812,14.0942249 C156.292184,15.2652753 156.584942,16.2230644 157.127095,16.9676211 C157.669248,17.7121778 158.525837,18.0844506 159.696887,18.0844506 Z" id="CreditSpring"></path>
                <g id="Group-7">
                    <path d="M18.745513,2.53976831 C18.2188445,3.64463091 17.6632838,4.82105433 17.078831,6.06903856 L0,6.06903856 L0,3.53976831 C6.76353751e-17,2.98748356 0.44771525,2.53976831 1,2.53976831 L18.745513,2.53976831 Z M8.86583896,20.5390466 L1,20.5390466 C0.44771525,20.5390466 -6.76353751e-17,20.0913314 0,19.5390466 L0,9.95123584 L15.2740895,9.95123584 C14.5247289,11.5739896 13.7359039,13.2944895 12.9076147,15.1127357 C10.5977112,15.5285598 8.65120225,17.9667287 8.85392517,20.4155614 C8.85734111,20.4568249 8.86131507,20.4979888 8.86583896,20.5390466 Z" id="Combined-Shape"></path>
                    <path d="M20.1501479,20.5390466 C20.1501904,20.5312889 20.1502117,20.5235262 20.1502117,20.5157587 C20.1502117,19.6275217 20.1502117,18.5665591 19.3182559,17.6248239 C19.8172687,14.8596938 20.2754677,12.3018311 20.6928529,9.95123584 L28.9400161,9.95123584 L28.9400161,19.5390466 C28.9400161,20.0913314 28.4923008,20.5390466 27.9400161,20.5390466 L20.1501479,20.5390466 Z M21.9923464,2.53976831 L27.9400161,2.53976831 C28.4923008,2.53976831 28.9400161,2.98748356 28.9400161,3.53976831 L28.9400161,6.06903856 L21.3781482,6.06903856 C21.597182,4.81998891 21.8019147,3.64356549 21.9923464,2.53976831 Z" id="Combined-Shape" fill-opacity="0.494961504"></path>
                    <path d="M14.1547501,16.6846872 L21.4950349,-1.63202785e-14 L17.5803398,18.0249575 C18.1565543,18.7023146 18.5042581,19.5800753 18.5042581,20.5390466 C18.5042581,22.683125 16.7661391,24.4212439 14.6220608,24.4212439 C12.4779824,24.4212439 10.7398635,22.683125 10.7398635,20.5390466 C10.7398635,18.5531256 12.2310162,16.915482 14.1547501,16.6846872 Z M14.6220608,22.3036817 C15.5966418,22.3036817 16.3866959,21.5136277 16.3866959,20.5390466 C16.3866959,19.5644655 15.5966418,18.7744115 14.6220608,18.7744115 C13.6474797,18.7744115 12.8574256,19.5644655 12.8574256,20.5390466 C12.8574256,21.5136277 13.6474797,22.3036817 14.6220608,22.3036817 Z" id="Combined-Shape"></path>
                </g>
            </g>
        </g>
    </g>
</svg>