<?xml version="1.0" encoding="UTF-8"?>
<svg width="260px" height="260px" viewBox="0 0 260 260" version="1.1" xmlns="http://www.w3.org/2000/svg" xmlns:xlink="http://www.w3.org/1999/xlink">
    <!-- Generator: Sketch 51 (57462) - http://www.bohemiancoding.com/sketch -->
    <title>piggy-bank copy</title>
    <desc>Created with Sketch.</desc>
    <defs>
        <polygon id="path-1" points="0.0310756972 0.200956175 78.7421912 0.200956175 78.7421912 118.779947 0.0310756972 118.779947"></polygon>
    </defs>
    <g id="desktop" stroke="none" stroke-width="1" fill="none" fill-rule="evenodd">
        <g id="how_it_works_page" transform="translate(-232.000000, -1136.000000)">
            <rect fill="#FFFFFF" x="0" y="0" width="1440" height="2956"></rect>
            <g id="piggy-bank-copy" transform="translate(232.000000, 1136.000000)">
                <path d="M251.379084,139.857729 L251.379084,145.269562 C251.379084,148.516454 249.214143,150.681394 245.967251,150.681394 L226.484861,150.681394 L226.484861,158.798884 L248.673426,158.798884 C254.625976,158.798884 259.497092,153.928287 259.497092,147.975219 L259.497092,139.857729 C259.497092,137.692789 257.873386,135.527849 255.167211,135.527849 C253.002789,135.527849 251.379084,137.151554 251.379084,139.857729" id="Fill-1" fill="#3455CC"></path>
                <path d="M106.883307,240.51761 C105.801355,251.341275 96.6008765,260 85.2359761,260 L84.695259,260 C72.7891235,260 63.0479283,250.258805 63.0479283,238.352669 L63.0479283,225.905299 C76.0360159,232.940837 91.1890438,237.811434 106.883307,240.51761" id="Fill-2" fill="#3455CC"></path>
                <g id="Group-6" transform="translate(0.000000, 59.561753)">
                    <mask id="mask-2" fill="white">
                        <use xlink:href="#path-1"></use>
                    </mask>
                    <g id="Clip-4"></g>
                    <path d="M37.0707171,44.0368526 C50.6005578,36.4600797 65.2123506,31.5894821 78.7421912,29.9657769 L48.9768526,0.200956175 C39.7768924,9.40091633 35.4475299,20.7658167 35.4475299,32.6719522 C35.9887649,35.9188446 36.53,40.2482072 37.0707171,44.0368526" id="Fill-3" fill="#071853" mask="url(#mask-2)"></path>
                    <path d="M5.68219124,72.7192032 C-1.89406375,80.2959761 -1.89406375,109.519562 5.68219124,117.096335 C9.47083665,120.884462 27.3295219,117.096335 27.3295219,117.096335 L27.3295219,72.7192032 C26.7882869,72.7192032 9.47083665,68.9310757 5.68219124,72.7192032" id="Fill-5" fill="#3455CC" mask="url(#mask-2)"></path>
                </g>
                <path d="M194.013865,225.905299 L194.013865,238.352669 C194.013865,250.258805 184.272669,260 172.366534,260 L171.825299,260 C160.460398,260 151.260438,251.341275 150.177968,240.51761 C166.413466,237.811434 181.025259,232.940837 194.013865,225.905299" id="Fill-7" fill="#3455CC"></path>
                <path d="M128.530637,66.7977291 C191.296813,66.7977291 242.179124,106.04996 242.179124,154.469522 C242.179124,202.889084 191.296813,242.140797 128.530637,242.140797 C65.7644622,242.140797 14.8826693,202.889084 14.8826693,154.469522 C14.8826693,106.04996 65.7644622,66.7977291 128.530637,66.7977291" id="Fill-8" fill="#4A6BE2"></path>
                <path d="M49.5180876,123.622231 C53.104741,123.622231 56.0123904,126.52988 56.0123904,130.116534 C56.0123904,133.703187 53.104741,136.610319 49.5180876,136.610319 C45.9314343,136.610319 43.0237849,133.703187 43.0237849,130.116534 C43.0237849,126.52988 45.9314343,123.622231 49.5180876,123.622231" id="Fill-9" fill="#071853"></path>
                <path d="M164.249044,88.9862948 L93.3539841,88.9862948 C91.1890438,88.9862948 89.0246215,90.61 89.0246215,93.3156574 C89.0246215,95.4805976 90.6478088,97.6455378 93.3539841,97.6455378 L164.249044,97.6455378 C166.413466,97.6455378 168.037171,96.0218327 168.037171,93.3156574 C168.037171,91.1512351 166.413466,88.9862948 164.249044,88.9862948" id="Fill-10" fill="#3455CC"></path>
                <path d="M128.530637,0.232549801 C154.2349,0.232549801 175.072709,21.0698406 175.072709,46.7741036 C175.072709,72.4783665 154.2349,93.3156574 128.530637,93.3156574 C102.826375,93.3156574 81.9890837,72.4783665 81.9890837,46.7741036 C81.9890837,21.0698406 102.826375,0.232549801 128.530637,0.232549801" id="Fill-11" fill="#FFA000"></path>
                <path d="M128.530637,11.5974502 C147.958645,11.5974502 163.707809,27.3466135 163.707809,46.7741036 C163.707809,66.2021116 147.958645,81.9512749 128.530637,81.9512749 C109.103147,81.9512749 93.3539841,66.2021116 93.3539841,46.7741036 C93.3539841,27.3466135 109.103147,11.5974502 128.530637,11.5974502" id="Fill-12" fill="#FFBC4A"></path>
                <path d="M123.118805,37.0329084 C122.57757,35.9504382 122.036335,34.8684861 122.036335,33.7860159 C122.036335,32.7035458 122.57757,31.0798406 123.118805,29.9973705 C123.66004,28.9154183 124.74251,28.3741833 126.366215,27.8329482 L126.366215,39.7390837 C124.74251,39.1978486 123.66004,38.1153785 123.118805,37.0329084 Z M131.236813,51.1034661 C133.401235,51.6447012 135.02494,52.7271713 135.566175,53.8096414 C136.10741,54.8921116 137.18988,56.5152988 137.18988,57.5977689 C137.18988,59.2214741 136.648645,60.8451793 135.566175,61.9271315 C134.483705,63.0096016 132.86,64.0920717 131.236813,64.0920717 L131.236813,51.1034661 Z M123.118805,60.8451793 C122.036335,59.7627092 121.495618,58.139004 120.954382,55.9740637 L111.753904,57.0565339 C112.295139,61.3858964 113.918845,65.1745418 116.62502,67.3389641 C119.330677,70.0451394 122.57757,71.1276096 126.366215,71.6688446 L126.366215,75.9982072 L131.236813,75.9982072 L131.236813,71.1276096 C135.566175,70.5863745 139.354303,68.9626693 141.519243,65.7157769 C144.2249,63.0096016 145.307371,59.2214741 145.307371,55.4333466 C145.307371,51.6447012 144.2249,48.3978088 142.060478,46.2328685 C139.895538,44.0684462 136.10741,41.903506 130.695578,40.2798008 L130.695578,27.8329482 C132.86,28.9154183 134.483705,30.5386056 135.02494,33.2447809 L143.683665,32.1623108 C143.14243,28.9154183 141.519243,26.209243 139.354303,24.0448207 C137.18988,21.8798805 134.483705,20.7974104 130.695578,20.2561753 L130.695578,16.4680478 L125.82498,16.4680478 L125.82498,19.7149402 C122.036335,20.2561753 118.789442,21.3386454 116.083785,24.0448207 C113.918845,26.7504781 112.295139,29.9973705 112.295139,33.7860159 C112.295139,37.5741434 113.37761,40.8210359 115.54255,43.5272112 C117.706972,46.2328685 120.954382,47.8565737 125.283745,49.4802789 L125.283745,64.0920717 C124.74251,63.5508367 123.66004,62.4683665 123.118805,60.8451793 Z" id="Fill-13" fill="#ED9808"></path>
            </g>
        </g>
    </g>
</svg>