<?xml version="1.0" encoding="UTF-8"?>
<svg width="391px" height="460px" viewBox="0 0 391 460" version="1.1" xmlns="http://www.w3.org/2000/svg" xmlns:xlink="http://www.w3.org/1999/xlink">
    <!-- Generator: Sketch 51.3 (57544) - http://www.bohemiancoding.com/sketch -->
    <title>Group 15</title>
    <desc>Created with Sketch.</desc>
    <defs>
        <polygon id="path-1" points="0.180761999 0.0582243911 53.0192081 0.0582243911 53.0192081 52.873836 0.180761999 52.873836"></polygon>
        <polygon id="path-3" points="0.0228330946 0.258013968 158.515715 0.258013968 158.515715 158.773729 0.0228330946 158.773729"></polygon>
        <polygon id="path-5" points="0.263610315 0.149240993 158.166189 0.149240993 158.166189 203.814912 0.263610315 203.814912"></polygon>
    </defs>
    <g id="desktop" stroke="none" stroke-width="1" fill="none" fill-rule="evenodd">
        <g id="about_us_page" transform="translate(-851.000000, -2093.000000)">
            <g id="Group-15" transform="translate(842.000000, 2069.000000)">
                <g id="Group" transform="translate(105.444126, 117.542184) rotate(27.000000) translate(-105.444126, -117.542184) translate(36.676218, 21.776504)">
                    <path d="M78.0082776,173.575294 L60.0711589,173.575294 C58.4179618,173.575294 57.080082,174.914553 57.080082,176.567582 L57.080082,179.561273 C57.080082,186.162637 62.4451481,191.531359 69.0397182,191.531359 C75.6342884,191.531359 80.9993545,186.162637 80.9993545,179.561273 L80.9993545,176.567582 C80.9993545,174.914553 79.6614747,173.575294 78.0082776,173.575294 Z" id="Fill-1" fill="#4A6BE2"></path>
                    <g id="Group-5">
                        <path d="M68.6275752,173.099651 L59.6802875,173.099651 C58.0303239,173.099651 56.6950609,174.433767 56.6950609,176.08045 L56.6950609,179.062645 C56.6950609,185.638662 62.0477684,190.984907 68.6275752,190.98677 L68.6275752,173.099651 Z" id="Fill-2" fill="#213FAD"></path>
                        <path d="M115.615871,18.7777719 C101.671138,5.68210319 83.4031179,-0.877609642 64.2441455,0.323280834 C29.3300957,2.49401381 1.12359769,31.5934813 0.0345005099,66.5720949 C-0.770200573,92.488597 12.855636,116.351288 35.5952018,128.850238 C41.248157,131.958206 44.7592832,137.93005 44.7592832,144.437125 L44.7592832,167.136657 C44.7592832,173.713139 50.1115245,179.062645 56.6950609,179.062645 L80.565684,179.062645 C87.1473556,179.062645 92.4995969,173.713139 92.4995969,167.136657 L92.4995969,144.437125 C92.4995969,137.93564 96.0382303,131.950752 101.736875,128.81204 C123.647496,116.735125 137.257015,93.7244242 137.257015,68.7554051 C137.257015,49.9077598 129.369453,31.6899065 115.615871,18.7777719 Z" id="Fill-4" fill="#F3A936"></path>
                    </g>
                    <path d="M116.878263,69.3754703 C116.878263,95.9715675 95.4594067,117.530607 69.0385503,117.530607 C42.6181611,117.530607 21.2011733,95.9715675 21.2011733,69.3754703 C21.2011733,42.7798435 42.6181611,21.220804 69.0385503,21.220804 C95.4594067,21.220804 116.878263,42.7798435 116.878263,69.3754703 Z" id="Fill-6" fill="#F8CE1C"></path>
                    <path d="M79.1041759,87.0597088 C75.1764035,87.0597088 73.1663299,84.7397349 71.7031146,83.0464018 C70.4135637,81.5574284 69.8990366,81.0752891 68.7480477,81.0752891 C67.6007539,81.0752891 67.0899218,81.5574284 65.8054515,83.0445313 C64.4272209,84.642933 62.3395526,87.0597088 58.4099327,87.0597088 C54.4840077,87.0597088 52.3968013,84.642933 51.0162613,83.0445313 C49.731791,81.5574284 49.2214208,81.0752891 48.0755126,81.0752891 C46.4409422,81.0752891 45.1204458,79.736429 45.1204458,78.0809749 C45.1204458,76.427859 46.4409422,75.0889989 48.0755126,75.0889989 C52.0014375,75.0889989 54.0891059,77.5057748 55.4691839,79.1041765 C56.7536542,80.5931498 57.2644863,81.0752891 58.4099327,81.0752891 C59.5558409,81.0752891 60.0699061,80.5931498 61.3543764,79.1041765 C62.7349163,77.5057748 64.8221228,75.0889989 68.7480477,75.0889989 C72.6758202,75.0889989 74.6858938,77.4089728 76.1491091,79.1023059 C77.43866,80.5931498 77.9531871,81.0752891 79.1041759,81.0752891 C80.2533172,81.0752891 80.7678443,80.5931498 82.0573952,79.1041765 C83.4416302,77.5057748 85.5269891,75.0889989 89.460304,75.0889989 C91.093027,75.0889989 92.4153709,76.427859 92.4153709,78.0809749 C92.4153709,79.736429 91.093027,81.0752891 89.460304,81.0752891 C88.3074677,81.0752891 87.7929406,81.5574284 86.5029279,83.0464018 C85.1210023,84.6466741 83.0337958,87.0597088 79.1041759,87.0597088 Z" id="Fill-7" fill="#FFFFFF"></path>
                    <path d="M59.4837246,143.64852 C58.0902133,143.64852 56.8367629,142.696709 56.5263577,141.300906 L41.3846391,72.7225434 C41.0297551,71.1119659 42.0683824,69.5251487 43.7008489,69.1738686 C45.3437254,68.8188613 46.9482744,69.8452143 47.3050511,71.4539283 L62.4467697,140.032757 C62.8016537,141.641471 61.7625533,143.230151 60.1305599,143.581432 C59.9124245,143.628486 59.6961819,143.64852 59.4837246,143.64852 Z" id="Fill-8" fill="#213FAD"></path>
                    <path d="M77.5102706,143.64852 C77.2959273,143.64852 77.081584,143.628486 76.8615627,143.581431 C75.2296201,143.230148 74.190552,141.641456 74.545425,140.03273 L89.6866731,71.4533856 C90.0453314,69.8446596 91.6422599,68.8201625 93.2931291,69.1733088 C94.9250717,69.5245916 95.9636667,71.1114207 95.6069011,72.7220103 L80.465653,141.300888 C80.15715,142.696702 78.9018459,143.64852 77.5102706,143.64852 Z" id="Fill-9" fill="#213FAD"></path>
                    <path d="M44.5768259,140.38378 C44.8984059,141.735681 45.096083,143.129961 45.096083,144.559087 L45.096083,167.505142 C45.096083,174.153046 50.5251097,179.560649 57.2030962,179.560649 L81.4161768,179.560649 C88.0922717,179.560649 93.52319,174.153046 93.52319,167.505142 L93.52319,144.559087 C93.52319,143.131845 93.7208671,141.737565 94.0462303,140.38378 L44.5768259,140.38378 Z" id="Fill-10" fill="#213FAD"></path>
                    <path d="M68.4960984,140.38378 L44.5768259,140.38378 C44.8878638,141.735681 45.0790607,143.129961 45.0790607,144.559087 L45.0790607,167.505142 C45.0790607,174.153046 50.3301124,179.560649 56.7891805,179.560649 L68.4960984,179.560649 L68.4960984,140.38378 Z" id="Fill-11" fill="#4A6BE2"></path>
                    <polygon id="Fill-12" fill="#4A6BE2" points="68.4960984 155.61923 92.4153709 155.61923 92.4153709 149.633875 68.4960984 149.633875"></polygon>
                    <polygon id="Fill-13" fill="#4A6BE2" points="68.4960984 167.58994 92.4153709 167.58994 92.4153709 161.604585 68.4960984 161.604585"></polygon>
                    <polygon id="Fill-14" fill="#213FAD" points="45.1204458 155.61923 69.0397182 155.61923 69.0397182 149.633875 45.1204458 149.633875"></polygon>
                    <polygon id="Fill-15" fill="#213FAD" points="45.1204458 167.58994 69.0397182 167.58994 69.0397182 161.604585 45.1204458 161.604585"></polygon>
                </g>
                <g id="analysis" transform="translate(204.706224, 117.899806)">
                    <g id="Group-3" transform="translate(138.520774, 138.901325)">
                        <mask id="mask-2" fill="white">
                            <use xlink:href="#path-1"></use>
                        </mask>
                        <g id="Clip-2"></g>
                        <path d="M19.9949409,0.0582243911 L48.9141968,28.9774803 C51.5430471,31.60595 53.0192067,35.169435 53.0192067,38.8843795 C53.0226316,46.6221347 46.7511417,52.8932441 39.013767,52.8966691 C39.010342,52.8966691 39.010342,52.8966691 39.0069171,52.8966691 C35.2919726,52.8966691 31.7284876,51.4205095 29.1000179,48.7916592 L0.180761999,19.8724033 L19.9949409,0.0582243911" id="Fill-1" fill="#213FAD" mask="url(#mask-2)"></path>
                    </g>
                    <polyline id="Fill-4" fill="#DB314C" points="122.193589 142.255507 142.007387 122.441708 158.516856 138.951177 138.703058 158.764976 122.193589 142.255507"></polyline>
                    <path d="M153.562075,145.564403 C157.710087,145.570872 161.851249,145.851719 165.959684,146.403138 L158.515715,138.95955 L151.86824,145.607025 C152.432978,145.59713 152.994292,145.564403 153.562075,145.564403" id="Fill-5" fill="#2D3458"></path>
                    <path d="M158.515715,138.95955 L142.003962,122.447417 L122.189403,142.261976 L128.794256,148.866449 C136.316999,146.828976 144.064649,145.729182 151.858345,145.59713 L158.515715,138.95955" id="Fill-6" fill="#B62933"></path>
                    <path d="M79.2578573,13.4677203 C115.735248,13.4677203 145.306389,43.0384805 145.306389,79.5158712 C145.306389,115.993262 115.735248,145.564403 79.2578573,145.564403 C42.7804665,145.564403 13.2097063,115.993262 13.2097063,79.5158712 C13.2097063,43.0384805 42.7804665,13.4677203 79.2578573,13.4677203" id="Fill-7" fill="#F8CE1C"></path>
                    <polyline id="Fill-8" fill="#DB314C" points="47.2001925 78.5458453 51.8703215 73.8753358 71.6841198 93.6891341 67.0136103 98.3592631 47.2001925 78.5458453"></polyline>
                    <polyline id="Fill-9" fill="#DB314C" points="80.2248388 93.6937008 106.644632 67.2739076 111.314761 71.9440365 84.8949678 98.3638297 80.2248388 93.6937008"></polyline>
                    <polygon id="Fill-10" fill="#DB314C" points="171.725421 20.0725734 194.842407 20.0725734 194.842407 13.4677203 171.725421 13.4677203"></polygon>
                    <polygon id="Fill-11" fill="#DB314C" points="13.2097063 72.9110181 33.0242658 72.9110181 33.0242658 66.3061649 13.2097063 66.3061649"></polygon>
                    <polyline id="Fill-12" fill="#DB314C" points="139.664712 34.2561112 152.874799 21.0464049 157.544927 25.7165338 144.335221 38.9266207 139.664712 34.2561112"></polyline>
                    <path d="M42.9315455,63.0037384 C39.2820559,63.0037384 36.3266923,65.9594824 36.3266923,69.6085915 C36.3266923,73.2577006 39.2820559,76.2134447 42.9315455,76.2134447 C46.5806545,76.2134447 49.5360181,73.2577006 49.5360181,69.6085915 C49.5360181,65.9594824 46.5806545,63.0037384 42.9315455,63.0037384 Z M42.9315455,82.8182978 C35.6363718,82.8182978 29.7218392,76.9037652 29.7218392,69.6085915 C29.7218392,62.3137984 35.6363718,56.3988852 42.9315455,56.3988852 C50.2263386,56.3988852 56.1408712,62.3137984 56.1408712,69.6085915 C56.1408712,76.9037652 50.2263386,82.8182978 42.9315455,82.8182978 Z" id="Fill-13" fill="#213FAD"></path>
                    <path d="M75.9554307,96.0280041 C72.3063216,96.0280041 69.3505775,98.9837482 69.3505775,102.632857 C69.3505775,106.281966 72.3063216,109.23771 75.9554307,109.23771 C79.6045398,109.23771 82.5602838,106.281966 82.5602838,102.632857 C82.5602838,98.9837482 79.6045398,96.0280041 75.9554307,96.0280041 Z M75.9554307,115.842564 C68.6606375,115.842564 62.7457244,109.928031 62.7457244,102.632857 C62.7457244,95.3376836 68.6606375,89.423151 75.9554307,89.423151 C83.2506044,89.423151 89.165137,95.3376836 89.165137,102.632857 C89.165137,109.928031 83.2506044,115.842564 75.9554307,115.842564 Z" id="Fill-14" fill="#213FAD"></path>
                    <path d="M161.818141,10.1652937 C158.169032,10.1652937 155.213288,13.1210378 155.213288,16.7701468 C155.213288,20.4192559 158.169032,23.375 161.818141,23.375 C165.46725,23.375 168.422994,20.4192559 168.422994,16.7701468 C168.422994,13.1210378 165.46725,10.1652937 161.818141,10.1652937 Z M161.818141,29.9798532 C154.523348,29.9798532 148.608435,24.0653206 148.608435,16.7701468 C148.608435,9.47497314 154.523348,3.56044054 161.818141,3.56044054 C169.113315,3.56044054 175.027847,9.47497314 175.027847,16.7701468 C175.027847,24.0653206 169.113315,29.9798532 161.818141,29.9798532 Z" id="Fill-15" fill="#213FAD"></path>
                    <path d="M104.600689,18.5237285 C132.809836,41.6506089 136.927785,83.2673487 113.79786,111.476876 C95.3342586,133.996015 64.2979943,141.766498 37.4032727,130.601115 C65.6124194,153.727615 107.226115,149.609666 130.35604,121.403944 C153.486345,93.197842 149.364971,51.5807217 121.158869,28.4507969 C116.155758,24.349212 110.574588,21.0037831 104.600689,18.5237285" id="Fill-16" fill="#F3A936"></path>
                    <polyline id="Fill-17" fill="#DB314C" points="119.850533 54.0779011 133.060239 40.8681948 137.730368 45.5383238 124.520662 58.7480301 119.850533 54.0779011"></polyline>
                    <g id="Group-21">
                        <mask id="mask-4" fill="white">
                            <use xlink:href="#path-3"></use>
                        </mask>
                        <g id="Clip-19"></g>
                        <path d="M132.885946,41.0329737 L125.349884,48.5690365 C126.152086,50.9764058 126.812724,53.4267774 127.331035,55.910257 L136.551419,46.6898729 C135.425367,44.7414488 134.203416,42.8558157 132.885946,41.0329737" id="Fill-18" fill="#B62933" mask="url(#mask-4)"></path>
                        <path d="M79.2578573,145.564403 C42.7793249,145.564403 13.2097063,115.994404 13.2097063,79.5158712 C13.2097063,43.0373388 42.7793249,13.4677203 79.2578573,13.4677203 C115.73639,13.4677203 145.306389,43.0373388 145.306389,79.5158712 C145.306389,115.994404 115.73639,145.564403 79.2578573,145.564403 Z M79.2578573,0.258013968 C35.4845317,0.258013968 0,35.7425457 0,79.5158712 C0,123.289577 35.4845317,158.773729 79.2578573,158.773729 C123.031563,158.773729 158.515715,123.289577 158.515715,79.5158712 C158.515715,35.7425457 123.031563,0.258013968 79.2578573,0.258013968 Z" id="Fill-20" fill="#213FAD" mask="url(#mask-4)"></path>
                    </g>
                    <path d="M115.58455,56.3988852 C111.935441,56.3988852 108.979696,59.3546293 108.979696,63.0037384 C108.979696,66.653228 111.935441,69.6085915 115.58455,69.6085915 C119.233659,69.6085915 122.189403,66.653228 122.189403,63.0037384 C122.189403,59.3546293 119.233659,56.3988852 115.58455,56.3988852 Z M115.58455,76.2134447 C108.289376,76.2134447 102.374843,70.2989121 102.374843,63.0037384 C102.374843,55.7089452 108.289376,49.7940321 115.58455,49.7940321 C122.879343,49.7940321 128.794256,55.7089452 128.794256,63.0037384 C128.794256,70.2989121 122.879343,76.2134447 115.58455,76.2134447 Z" id="Fill-22" fill="#213FAD"></path>
                </g>
                <g id="file-4" transform="translate(170.154105, 350.311331) rotate(-25.000000) translate(-170.154105, -350.311331) translate(45.654105, 235.311331)">
                    <g id="Group-3">
                        <mask id="mask-6" fill="white">
                            <use xlink:href="#path-5"></use>
                        </mask>
                        <g id="Clip-2"></g>
                        <polygon id="Fill-1" fill="#FFEFAC" mask="url(#mask-6)" points="158.166189 49.3109797 108.963324 0.149240993 0 0.149240993 0 203.814912 158.166189 203.814912"></polygon>
                    </g>
                    <path d="M35.6190621,80.2292264 L123.693259,80.2292264 C125.635295,80.2292264 127.22063,78.6972254 127.22063,76.7994377 C127.22063,74.8844365 125.635295,73.3524355 123.693259,73.3524355 L35.6190621,73.3524355 C33.6770261,73.3524355 32.0916905,74.8844365 32.0916905,76.7994377 C32.0916905,78.6972254 33.6770261,80.2292264 35.6190621,80.2292264 Z" id="Fill-4" fill="#ECBE00"></path>
                    <path d="M35.6292773,52.722063 L70.9609806,52.722063 C72.9086407,52.722063 74.4985673,51.1800469 74.4985673,49.2858153 C74.4985673,47.3872884 72.9086407,45.8452722 70.9609806,45.8452722 L35.6292773,45.8452722 C33.6816172,45.8452722 32.0916905,47.3872884 32.0916905,49.2858153 C32.0916905,51.1800469 33.6816172,52.722063 35.6292773,52.722063 Z" id="Fill-5" fill="#ECBE00"></path>
                    <path d="M123.693259,102.005731 L35.6190621,102.005731 C33.6770261,102.005731 32.0916905,103.547747 32.0916905,105.441978 C32.0916905,107.340505 33.6770261,108.882521 35.6190621,108.882521 L123.693259,108.882521 C125.635295,108.882521 127.22063,107.340505 127.22063,105.441978 C127.22063,103.547747 125.635295,102.005731 123.693259,102.005731 Z" id="Fill-6" fill="#ECBE00"></path>
                    <path d="M123.693259,129.512894 L35.6190621,129.512894 C33.6770261,129.512894 32.0916905,131.040592 32.0916905,132.942683 C32.0916905,134.857684 33.6770261,136.389685 35.6190621,136.389685 L123.693259,136.389685 C125.635295,136.389685 127.22063,134.857684 127.22063,132.942683 C127.22063,131.040592 125.635295,129.512894 123.693259,129.512894 Z" id="Fill-7" fill="#ECBE00"></path>
                    <path d="M123.693259,158.166189 L35.6190621,158.166189 C33.6770261,158.166189 32.0916905,159.711535 32.0916905,161.604585 C32.0916905,163.501926 33.6770261,165.04298 35.6190621,165.04298 L123.693259,165.04298 C125.635295,165.04298 127.22063,163.501926 127.22063,161.604585 C127.22063,159.711535 125.635295,158.166189 123.693259,158.166189 Z" id="Fill-8" fill="#ECBE00"></path>
                    <polygon id="Fill-9" fill="#ECBE00" points="108.882521 0 108.882521 49.2836676 158.166189 49.2836676"></polygon>
                    <g id="Group-14" transform="translate(160.641658, 141.652808)">
                        <polygon id="Fill-10" fill="#EDDCC7" points="12.6154712 55.0143266 12.5981944 55.0488913 5.73065903 80.2292264 21.7765043 64.1825955"></polygon>
                        <path d="M80.2292264,6.45462028 L75.9141123,2.05660297 C73.251687,-0.685534324 68.9020521,-0.685534324 66.2396267,2.05660297 L53.8681948,14.7031106 L63.0205517,24.0687679 L80.2292264,6.45462028 Z" id="Fill-11" fill="#DB314C"></path>
                        <polygon id="Fill-12" fill="#F8CE1C" points="54.8122925 13.7535817 64.1833811 23.1138757 23.1246702 64.1833811 13.7535817 54.8054094"></polygon>
                        <polygon id="Fill-13" fill="#D6C4B1" points="33.2025058 74.939001 33.2378223 74.9211494 22.6163756 64.1833811 6.21626133 80.7586394 5.73065903 82.52149"></polygon>
                        <path d="M73.6160973,33.2378223 L86.2043109,20.9058384 C88.9347617,18.2476012 88.9347617,13.916137 86.2043109,11.2578998 L80.5719317,5.73065903 L63.0372493,22.8887629 L73.6160973,33.2378223 Z" id="Fill-14" fill="#B62933"></path>
                        <polygon id="Fill-15" fill="#F3A936" points="33.533298 74.4985673 22.9226361 63.8879055 63.9055458 22.9226361 74.4985673 33.5156576"></polygon>
                        <path d="M3.54718167,88.252149 C2.63020808,88.252149 1.73095378,87.9065713 1.03990121,87.215416 C-0.346633738,85.8286749 -0.346633738,83.5957116 1.03990121,82.213401 L8.85854081,74.3891685 C10.2450758,73.0068579 12.4777071,73.0068579 13.8598123,74.3891685 C15.2463472,75.7759096 15.2463472,78.0088729 13.8598123,79.3911835 L6.03674284,87.215416 C5.34569027,87.9065713 4.44643597,88.252149 3.54718167,88.252149 Z" id="Fill-16" fill="#000000"></path>
                    </g>
                </g>
            </g>
        </g>
    </g>
</svg>