<?xml version="1.0" encoding="UTF-8"?>
<svg width="155px" height="24px" viewBox="0 0 155 24" version="1.1" xmlns="http://www.w3.org/2000/svg" xmlns:xlink="http://www.w3.org/1999/xlink">
    <!-- Generator: Sketch 51 (57462) - http://www.bohemiancoding.com/sketch -->
    <title>Logo</title>
    <desc>Created with Sketch.</desc>
    <defs></defs>
    <g id="Logo" stroke="none" stroke-width="1" fill="none" fill-rule="evenodd">
        <g id="Group-12-Copy" fill="#FFFFFF">
            <g id="Logo" transform="translate(33.000000, 2.000000)">
                <path d="M6.46104204,16.1699822 C4.51892973,16.1699822 2.99446234,15.7014377 1.88759414,14.7643345 C0.780725932,13.8272314 0.193347628,12.4555503 0.125441603,10.64925 C0.111860398,10.2825575 0.105069898,9.68499342 0.105069898,8.85653992 C0.105069898,8.01450521 0.111860398,7.40336016 0.125441603,7.02308642 C0.193347628,5.25752977 0.787516433,3.8960344 1.90796584,2.93855945 C3.02841525,1.9810845 4.54609214,1.50235421 6.46104204,1.50235421 C7.66976928,1.50235421 8.75285413,1.69927872 9.71032908,2.09313367 C10.667804,2.48698861 11.4249448,3.05739066 11.9817743,3.80435694 C12.5386037,4.55132321 12.8305952,5.43408829 12.8577576,6.45267866 C12.8577576,6.57490951 12.8136193,6.67676702 12.7253415,6.75825425 C12.6370637,6.83974148 12.5318109,6.88048448 12.4095801,6.88048448 L9.51679788,6.88048448 C9.32666101,6.88048448 9.18745574,6.84313673 9.09917791,6.7684401 C9.01090008,6.69374347 8.93280932,6.55453821 8.8649033,6.35082014 C8.67476643,5.68534109 8.38617015,5.2201918 7.99910581,4.9553583 C7.61204147,4.69052481 7.09935867,4.55811004 6.46104204,4.55811004 C4.92636588,4.55811004 4.13187731,5.41371312 4.07755249,7.12494495 C4.06397128,7.49163748 4.05718078,8.05524903 4.05718078,8.81579651 C4.05718078,9.57634399 4.06397128,10.1535365 4.07755249,10.5473915 C4.13187731,12.2586233 4.92636588,13.1142264 6.46104204,13.1142264 C7.08577747,13.1142264 7.59846026,12.9784164 7.99910581,12.7067923 C8.39975136,12.4351682 8.68834763,11.9734141 8.8649033,11.3215163 C8.91922812,11.1177982 8.99392362,10.978593 9.08899206,10.9038963 C9.18406049,10.8291997 9.32666101,10.791852 9.51679788,10.791852 L12.4095801,10.791852 C12.5318109,10.791852 12.6370637,10.832595 12.7253415,10.9140822 C12.8136193,10.9955694 12.8577576,11.0974269 12.8577576,11.2196578 C12.8305952,12.2382481 12.5386037,13.1210132 11.9817743,13.8679795 C11.4249448,14.6149458 10.667804,15.1853478 9.71032908,15.5792028 C8.75285413,15.9730577 7.66976928,16.1699822 6.46104204,16.1699822 Z M15.2208754,15.9662652 C15.0850634,15.9662652 14.9662296,15.9153364 14.8643706,15.8134774 C14.7625116,15.7116183 14.7115828,15.5927846 14.7115828,15.4569725 L14.7115828,5.90264261 C14.7115828,5.75324936 14.7591163,5.6276251 14.8541847,5.52576606 C14.9492532,5.42390702 15.0714822,5.37297827 15.2208754,5.37297827 L17.7062235,5.37297827 C17.8556168,5.37297827 17.981241,5.42390702 18.0831001,5.52576606 C18.1849591,5.6276251 18.2358879,5.75324936 18.2358879,5.90264261 L18.2358879,6.67676742 C18.6161616,6.25575007 19.0609394,5.93320129 19.5702346,5.70911141 C20.0795298,5.48502153 20.6465366,5.37297827 21.271272,5.37297827 L22.1879987,5.37297827 C22.337392,5.37297827 22.459621,5.42051177 22.5546894,5.51558021 C22.6497579,5.61064864 22.6972914,5.73287765 22.6972914,5.88227091 L22.6972914,8.10278682 C22.6972914,8.23859886 22.6497579,8.35743263 22.5546894,8.45929166 C22.459621,8.5611507 22.337392,8.61207945 22.1879987,8.61207945 L20.1304565,8.61207945 C19.5872083,8.61207945 19.1695925,8.76147047 18.8775966,9.06025698 C18.5856007,9.35904349 18.4396049,9.78005453 18.4396049,10.3233027 L18.4396049,15.4569725 C18.4396049,15.6063658 18.3886762,15.7285948 18.2868171,15.8236632 C18.1849581,15.9187317 18.0593338,15.9662652 17.9099406,15.9662652 L15.2208754,15.9662652 Z M29.0736352,16.1699822 C27.4167282,16.1699822 26.1129521,15.7252044 25.1622678,14.8356355 C24.2115834,13.9460666 23.7226674,12.6524762 23.695505,10.9548256 L23.695505,10.3233027 C23.7498298,8.70713933 24.2523268,7.44410622 25.2030112,6.53416549 C26.1536955,5.62422475 27.4371001,5.16926121 29.0532635,5.16926121 C30.2212472,5.16926121 31.209265,5.40353348 32.0173467,5.87208505 C32.8254284,6.34063663 33.4297829,6.98573418 33.8304285,7.80739708 C34.231074,8.62905998 34.4313938,9.56275382 34.4313938,10.6085066 L34.4313938,11.1177992 C34.4313938,11.2671925 34.380465,11.3928168 34.278606,11.4946758 C34.176747,11.5965348 34.0511227,11.6474636 33.9017295,11.6474636 L27.4438988,11.6474636 L27.4438988,11.7696938 C27.45748,12.380848 27.6000805,12.8731593 27.8717046,13.2466425 C28.1433287,13.6201256 28.5303872,13.8068644 29.0328918,13.8068644 C29.3588407,13.8068644 29.620275,13.7423546 29.8172025,13.6133332 C30.01413,13.4843117 30.2008687,13.3179445 30.3774244,13.1142264 C30.4996552,12.9784143 30.5981175,12.8935331 30.6728141,12.8595801 C30.7475107,12.8256271 30.8663445,12.8086508 31.029319,12.8086508 L33.6980124,12.8086508 C33.8202432,12.8086508 33.925496,12.8459986 34.0137738,12.9206952 C34.1020517,12.9953918 34.1461899,13.0870636 34.1461899,13.1957132 C34.1461899,13.5488245 33.9458702,13.9630451 33.5452246,14.4383873 C33.1445791,14.9137294 32.560596,15.3211595 31.7932579,15.6606896 C31.0259198,16.0002197 30.119388,16.1699822 29.0736352,16.1699822 Z M30.683,9.56954962 L30.683,9.52880621 C30.683,8.87690837 30.5403995,8.37101607 30.2551942,8.01111414 C29.9699889,7.65121221 29.5693493,7.47126394 29.0532635,7.47126394 C28.5371777,7.47126394 28.1399335,7.65121221 27.8615188,8.01111414 C27.5831041,8.37101607 27.4438988,8.87690837 27.4438988,9.52880621 L27.4438988,9.56954962 L30.683,9.56954962 Z M40.2373299,16.1699822 C38.919953,16.1699822 37.8844017,15.7557617 37.1306448,14.9273082 C36.3768879,14.0988547 35.9728531,12.9173076 35.9185283,11.3826314 L35.8981566,10.6696217 L35.9185283,9.93624032 C35.9728531,8.45588898 36.3802832,7.29131812 37.1408306,6.44249281 C37.9013781,5.5936675 38.9335342,5.16926121 40.2373299,5.16926121 C41.4596383,5.16926121 42.4442609,5.56311025 43.1912272,6.35082014 L43.1912272,2.01164685 C43.1912272,1.86225359 43.242156,1.74002458 43.344015,1.64495615 C43.445874,1.54988771 43.5647078,1.50235421 43.7005198,1.50235421 L46.3284699,1.50235421 C46.4778631,1.50235421 46.6034874,1.54988771 46.7053464,1.64495615 C46.8072055,1.74002458 46.8581342,1.86225359 46.8581342,2.01164685 L46.8581342,15.4569725 C46.8581342,15.6063658 46.8072055,15.7285948 46.7053464,15.8236632 C46.6034874,15.9187317 46.4778631,15.9662652 46.3284699,15.9662652 L43.9042369,15.9662652 C43.7684248,15.9662652 43.6495911,15.9153364 43.547732,15.8134774 C43.445873,15.7116183 43.3949443,15.5927846 43.3949443,15.4569725 L43.3949443,14.8254497 C42.6615592,15.7218092 41.6090316,16.1699822 40.2373299,16.1699822 Z M41.4188888,13.3383151 C42.0028806,13.3383151 42.4374727,13.1515764 42.722678,12.7780932 C43.0078833,12.4046101 43.1640648,11.9326703 43.1912272,11.3622597 C43.2183896,10.981986 43.2319706,10.7239469 43.2319706,10.5881349 C43.2319706,10.4387416 43.2183896,10.1874931 43.1912272,9.83438179 C43.1640648,9.3047148 43.004488,8.86672751 42.7124921,8.52040678 C42.4204962,8.17408605 41.9892994,8.00092829 41.4188888,8.00092829 C40.8077346,8.00092829 40.3697473,8.18087655 40.1049138,8.54077849 C39.8400803,8.90068042 39.687294,9.39978221 39.6465504,10.0380988 L39.6261787,10.6696217 L39.6465504,11.3011446 C39.687294,11.9394612 39.8400803,12.438563 40.1049138,12.798465 C40.3697473,13.1583669 40.8077346,13.3383151 41.4188888,13.3383151 Z M49.6898013,3.90621547 C49.540408,3.90621547 49.418179,3.85528671 49.3231106,3.75342767 C49.2280421,3.65156864 49.1805086,3.52594437 49.1805086,3.37655112 L49.1805086,1.4819825 C49.1805086,1.33258925 49.2314374,1.20696499 49.3332964,1.10510595 C49.4351555,1.00324691 49.5539892,0.952318156 49.6898013,0.952318156 L52.2362645,0.952318156 C52.3856577,0.952318156 52.511282,1.00324691 52.613141,1.10510595 C52.7150001,1.20696499 52.7659288,1.33258925 52.7659288,1.4819825 L52.7659288,3.37655112 C52.7659288,3.52594437 52.7150001,3.65156864 52.613141,3.75342767 C52.511282,3.85528671 52.3856577,3.90621547 52.2362645,3.90621547 L49.6898013,3.90621547 Z M49.6898013,15.9662652 C49.5539892,15.9662652 49.4351555,15.9153364 49.3332964,15.8134774 C49.2314374,15.7116183 49.1805086,15.5927846 49.1805086,15.4569725 L49.1805086,5.88227091 C49.1805086,5.73287765 49.2314374,5.61064864 49.3332964,5.51558021 C49.4351555,5.42051177 49.5539892,5.37297827 49.6898013,5.37297827 L52.2362645,5.37297827 C52.3856577,5.37297827 52.511282,5.42051177 52.613141,5.51558021 C52.7150001,5.61064864 52.7659288,5.73287765 52.7659288,5.88227091 L52.7659288,15.4569725 C52.7659288,15.6063658 52.7150001,15.7285948 52.613141,15.8236632 C52.511282,15.9187317 52.3856577,15.9662652 52.2362645,15.9662652 L49.6898013,15.9662652 Z M60.6497789,15.9662652 C57.7705634,15.9662652 56.3309773,14.6149555 56.3309773,11.9122958 L56.3309773,8.14353023 L54.7216126,8.14353023 C54.5858005,8.14353023 54.4669668,8.09260147 54.3651077,7.99074243 C54.2632487,7.8888834 54.2123199,7.77004964 54.2123199,7.63423759 L54.2123199,5.88227091 C54.2123199,5.73287765 54.2632487,5.61064864 54.3651077,5.51558021 C54.4669668,5.42051177 54.5858005,5.37297827 54.7216126,5.37297827 L56.3309773,5.37297827 L56.3309773,2.01164685 C56.3309773,1.86225359 56.3819061,1.74002458 56.4837651,1.64495615 C56.5856241,1.54988771 56.7044579,1.50235421 56.8402699,1.50235421 L59.3459897,1.50235421 C59.495383,1.50235421 59.617612,1.54988771 59.7126804,1.64495615 C59.8077489,1.74002458 59.8552824,1.86225359 59.8552824,2.01164685 L59.8552824,5.37297827 L62.4017456,5.37297827 C62.5511388,5.37297827 62.6767631,5.42051177 62.7786221,5.51558021 C62.8804812,5.61064864 62.9314099,5.73287765 62.9314099,5.88227091 L62.9314099,7.63423759 C62.9314099,7.78363084 62.8804812,7.90585985 62.7786221,8.00092829 C62.6767631,8.09599672 62.5511388,8.14353023 62.4017456,8.14353023 L59.8552824,8.14353023 L59.8552824,11.6067202 C59.8552824,12.0820623 59.9435589,12.4419589 60.1201145,12.6864206 C60.2966702,12.9308823 60.5818712,13.0531113 60.9757262,13.0531113 L62.5850909,13.0531113 C62.7344842,13.0531113 62.8567132,13.10404 62.9517816,13.2058991 C63.0468501,13.3077581 63.0943836,13.4333824 63.0943836,13.5827756 L63.0943836,15.4569725 C63.0943836,15.5927846 63.0468501,15.7116183 62.9517816,15.8134774 C62.8567132,15.9153364 62.7344842,15.9662652 62.5850909,15.9662652 L60.6497789,15.9662652 Z M69.776303,16.1699822 C68.716969,16.1699822 67.7968562,15.9968245 67.0159369,15.6505037 C66.2350176,15.304183 65.6374535,14.8526147 65.2232268,14.2957853 C64.809,13.7389559 64.5883088,13.1413919 64.5611464,12.5030752 C64.5611464,12.3944256 64.6018894,12.2993586 64.6833766,12.2178713 C64.7648638,12.1363841 64.8667213,12.0956411 64.9889522,12.0956411 L65.3963863,12.0956411 C65.640848,12.0956411 65.790239,12.2314511 65.8445638,12.5030752 C65.9396322,13.1549731 66.3131098,13.7253751 66.9650076,14.2142985 C67.6169055,14.7032219 68.5539945,14.9476799 69.776303,14.9476799 C71.0665175,14.9476799 72.0273733,14.7134076 72.6588993,14.244856 C73.2904254,13.7763045 73.6061836,13.1210212 73.6061836,12.2789865 C73.6061836,11.7629007 73.4533974,11.3384944 73.1478203,11.0057549 C72.8422431,10.6730153 72.3974654,10.3810238 71.8134735,10.1297715 C71.2294817,9.87851923 70.3467166,9.56276095 69.1651518,9.18248721 C68.119399,8.84295709 67.3011437,8.51022256 66.7103613,8.18427364 C66.1195789,7.85832472 65.6815916,7.45768518 65.3963863,6.98234301 C65.111181,6.50700083 64.9685805,5.90264628 64.9685805,5.16926121 C64.9685805,4.47661976 65.1553192,3.8518937 65.5288024,3.2950643 C65.9022855,2.73823489 66.4421303,2.3002476 67.148353,1.98108929 C67.8545756,1.66193097 68.6965977,1.50235421 69.6744445,1.50235421 C70.6794536,1.50235421 71.5418472,1.68230247 72.2616511,2.0422044 C72.9814549,2.40210634 73.524695,2.85706988 73.8913875,3.40710868 C74.25808,3.95714748 74.4550046,4.51057328 74.482167,5.06740268 C74.482167,5.17605232 74.4448192,5.27111933 74.3701226,5.35260656 C74.295426,5.43409379 74.1901732,5.4748368 74.0543612,5.4748368 L73.646927,5.4748368 C73.5518586,5.4748368 73.4567916,5.44427954 73.3617232,5.38316412 C73.2666547,5.3220487 73.2123307,5.21679594 73.1987495,5.06740268 C73.1172623,4.38834244 72.7539705,3.82812613 72.1088633,3.38673697 C71.463756,2.94534781 70.6522912,2.72465654 69.6744445,2.72465654 C68.6286917,2.72465654 67.7968553,2.92837156 67.1789105,3.33580771 C66.5609657,3.74324386 66.2519979,4.35438891 66.2519979,5.16926121 C66.2519979,5.69892821 66.3912032,6.1369155 66.6696179,6.48323622 C66.9480326,6.82955695 67.3656484,7.12833898 67.9224778,7.37959127 C68.4793072,7.63084356 69.3009578,7.93302084 70.3874542,8.28613217 C71.501113,8.63924349 72.370297,8.97876853 72.9950325,9.30471744 C73.6197679,9.63066636 74.0917077,10.0245154 74.410866,10.4862764 C74.7300243,10.9480373 74.8896011,11.5456014 74.8896011,12.2789865 C74.8896011,13.5012949 74.4346375,14.4553602 73.5246968,15.1412111 C72.6147561,15.8270619 71.365304,16.1699822 69.776303,16.1699822 Z M78.0268437,19.8368892 C77.8910317,19.8368892 77.7823837,19.7961462 77.7008965,19.714659 C77.6194092,19.6331718 77.5786662,19.5245238 77.5786662,19.3887117 L77.5786662,5.82115579 C77.5786662,5.68534374 77.6194092,5.57669573 77.7008965,5.4952085 C77.7823837,5.41372127 77.8910317,5.37297827 78.0268437,5.37297827 L78.3731627,5.37297827 C78.5089748,5.37297827 78.6176228,5.41372127 78.69911,5.4952085 C78.7805973,5.57669573 78.8213403,5.68534374 78.8213403,5.82115579 L78.8213403,6.77862595 C79.6090502,5.70571076 80.7498543,5.16926121 82.2437868,5.16926121 C83.7105569,5.16926121 84.7936418,5.6344105 85.4930738,6.56472304 C86.1925059,7.49503558 86.5625882,8.63923494 86.6033318,9.99735543 C86.616913,10.1331675 86.6237035,10.357254 86.6237035,10.6696217 C86.6237035,10.9819894 86.616913,11.206076 86.6033318,11.341888 C86.5625882,12.7000085 86.1925059,13.8442079 85.4930738,14.7745204 C84.7936418,15.7048329 83.7105569,16.1699822 82.2437868,16.1699822 C80.7634355,16.1699822 79.6226314,15.6335327 78.8213403,14.5606175 L78.8213403,19.3887117 C78.8213403,19.5245238 78.7805973,19.6331718 78.69911,19.714659 C78.6176228,19.7961462 78.5089748,19.8368892 78.3731627,19.8368892 L78.0268437,19.8368892 Z M82.1215566,14.9884233 C83.2216342,14.9884233 84.0263085,14.6387125 84.5356037,13.9392805 C85.0448989,13.2398484 85.3199141,12.3401071 85.3606578,11.2400295 C85.374239,11.1042174 85.3810295,10.9140834 85.3810295,10.6696217 C85.3810295,9.40656966 85.1365714,8.37101831 84.6476481,7.56293662 C84.1587247,6.75485492 83.3167026,6.35082014 82.1215566,6.35082014 C81.0486414,6.35082014 80.2405718,6.70732142 79.6973236,7.42033468 C79.1540754,8.13334794 78.8620839,8.97197477 78.8213403,9.93624032 L78.8009686,10.7307368 L78.8213403,11.5252334 C78.8349215,12.1092252 78.963941,12.662651 79.2084027,13.1855274 C79.4528644,13.7084037 79.8195514,14.1396005 80.3084748,14.4791307 C80.7973981,14.8186608 81.4017527,14.9884233 82.1215566,14.9884233 Z M89.842433,15.9662652 C89.7066209,15.9662652 89.5979729,15.9255222 89.5164857,15.8440349 C89.4349985,15.7625477 89.3942555,15.6538997 89.3942555,15.5180876 L89.3942555,5.8415275 C89.3942555,5.70571545 89.4349985,5.59367219 89.5164857,5.50539435 C89.5979729,5.41711652 89.7066209,5.37297827 89.842433,5.37297827 L90.1683803,5.37297827 C90.3041923,5.37297827 90.4162356,5.41711652 90.5045134,5.50539435 C90.5927912,5.59367219 90.6369295,5.70571545 90.6369295,5.8415275 L90.6369295,6.77862595 C91.1258529,5.84152281 92.049361,5.37297827 93.4074815,5.37297827 L94.1612346,5.37297827 C94.2970466,5.37297827 94.4056946,5.41372127 94.4871819,5.4952085 C94.5686691,5.57669573 94.6094121,5.68534374 94.6094121,5.82115579 L94.6094121,6.10635967 C94.6094121,6.24217172 94.5686691,6.35081973 94.4871819,6.43230696 C94.4056946,6.51379419 94.2970466,6.55453719 94.1612346,6.55453719 L93.2852512,6.55453719 C92.4703789,6.55453719 91.8252814,6.79220471 91.3499392,7.26754689 C90.874597,7.74288906 90.6369295,8.38798662 90.6369295,9.20285892 L90.6369295,15.5180876 C90.6369295,15.6538997 90.5927912,15.7625477 90.5045134,15.8440349 C90.4162356,15.9255222 90.3041923,15.9662652 90.1683803,15.9662652 L89.842433,15.9662652 Z M96.7076978,3.19320577 C96.5718857,3.19320577 96.4632377,3.15246277 96.3817505,3.07097554 C96.3002632,2.98948831 96.2595202,2.8808403 96.2595202,2.74502825 L96.2595202,1.97090344 C96.2595202,1.83509139 96.3002632,1.72304813 96.3817505,1.63477029 C96.4632377,1.54649246 96.5718857,1.50235421 96.7076978,1.50235421 L97.4818226,1.50235421 C97.6176346,1.50235421 97.7296779,1.54649246 97.8179557,1.63477029 C97.9062336,1.72304813 97.9503718,1.83509139 97.9503718,1.97090344 L97.9503718,2.74502825 C97.9503718,2.8808403 97.9062336,2.98948831 97.8179557,3.07097554 C97.7296779,3.15246277 97.6176346,3.19320577 97.4818226,3.19320577 L96.7076978,3.19320577 Z M96.9317865,15.9662652 C96.7959745,15.9662652 96.6873265,15.9255222 96.6058392,15.8440349 C96.524352,15.7625477 96.483609,15.6538997 96.483609,15.5180876 L96.483609,5.82115579 C96.483609,5.68534374 96.524352,5.57669573 96.6058392,5.4952085 C96.6873265,5.41372127 96.7959745,5.37297827 96.9317865,5.37297827 L97.2781055,5.37297827 C97.4139176,5.37297827 97.5225656,5.41372127 97.6040528,5.4952085 C97.68554,5.57669573 97.726283,5.68534374 97.726283,5.82115579 L97.726283,15.5180876 C97.726283,15.6538997 97.68554,15.7625477 97.6040528,15.8440349 C97.5225656,15.9255222 97.4139176,15.9662652 97.2781055,15.9662652 L96.9317865,15.9662652 Z M101.474677,15.9662652 C101.338865,15.9662652 101.230217,15.9255222 101.14873,15.8440349 C101.067242,15.7625477 101.026499,15.6538997 101.026499,15.5180876 L101.026499,5.82115579 C101.026499,5.68534374 101.067242,5.57669573 101.14873,5.4952085 C101.230217,5.41372127 101.338865,5.37297827 101.474677,5.37297827 L101.820996,5.37297827 C101.956808,5.37297827 102.065456,5.41372127 102.146943,5.4952085 C102.22843,5.57669573 102.269173,5.68534374 102.269173,5.82115579 L102.269173,6.77862595 C102.67661,6.24895896 103.141759,5.84831942 103.664635,5.57669532 C104.187512,5.30507122 104.863166,5.16926121 105.69162,5.16926121 C107.022578,5.16926121 108.047944,5.5936675 108.767747,6.44249281 C109.487551,7.29131812 109.847448,8.38798397 109.847448,9.73252326 L109.847448,15.5180876 C109.847448,15.6538997 109.806705,15.7625477 109.725218,15.8440349 C109.64373,15.9255222 109.535082,15.9662652 109.39927,15.9662652 L109.052951,15.9662652 C108.917139,15.9662652 108.808491,15.9255222 108.727004,15.8440349 C108.645517,15.7625477 108.604774,15.6538997 108.604774,15.5180876 L108.604774,9.83438179 C108.604774,8.73430419 108.336549,7.87870111 107.800091,7.26754689 C107.263634,6.65639266 106.492912,6.35082014 105.487903,6.35082014 C104.510056,6.35082014 103.729149,6.65978791 103.145157,7.27773274 C102.561165,7.89567756 102.269173,8.74788539 102.269173,9.83438179 L102.269173,15.5180876 C102.269173,15.6538997 102.22843,15.7625477 102.146943,15.8440349 C102.065456,15.9255222 101.956808,15.9662652 101.820996,15.9662652 L101.474677,15.9662652 Z M116.997917,20.4480404 C115.938583,20.4480404 115.08977,20.2646969 114.451453,19.8980043 C113.813137,19.5313118 113.368359,19.113696 113.117107,18.6451445 C112.865854,18.1765929 112.74023,17.7657676 112.74023,17.4126563 C112.74023,17.2904254 112.784368,17.1885679 112.872646,17.1070807 C112.960924,17.0255935 113.066177,16.9848504 113.188408,16.9848504 L113.473611,16.9848504 C113.595842,16.9848504 113.694305,17.0154077 113.769001,17.0765231 C113.843698,17.1376385 113.908208,17.2496818 113.962532,17.4126563 C114.38355,18.6485459 115.361382,19.2664815 116.896058,19.2664815 C118.064042,19.2664815 118.926435,19.0254187 119.483265,18.5432859 C120.040094,18.0611531 120.318505,17.2021548 120.318505,15.9662652 L120.318505,14.5606175 C119.530795,15.6335327 118.389991,16.1699822 116.896058,16.1699822 C115.429288,16.1699822 114.346203,15.6912519 113.646771,14.733777 C112.947339,13.776302 112.577257,12.6117312 112.536513,11.2400295 L112.516141,10.6696217 L112.536513,10.099214 C112.577257,8.72751226 112.947339,7.5629414 113.646771,6.60546646 C114.346203,5.64799151 115.429288,5.16926121 116.896058,5.16926121 C118.376409,5.16926121 119.517213,5.70571076 120.318505,6.77862595 L120.318505,5.8415275 C120.318505,5.70571545 120.359248,5.59367219 120.440735,5.50539435 C120.522222,5.41711652 120.63087,5.37297827 120.766682,5.37297827 L121.092629,5.37297827 C121.228441,5.37297827 121.340485,5.41711652 121.428762,5.50539435 C121.51704,5.59367219 121.561179,5.70571545 121.561179,5.8415275 L121.561179,15.7625481 C121.561179,17.215737 121.221654,18.3599364 120.542593,19.1951805 C119.863533,20.0304246 118.681986,20.4480404 116.997917,20.4480404 Z M117.018288,14.9884233 C118.091203,14.9884233 118.899273,14.631922 119.442521,13.9189088 C119.985769,13.2058955 120.277761,12.3672687 120.318505,11.4030031 C120.332086,11.2671911 120.338876,11.022733 120.338876,10.6696217 C120.338876,10.3165104 120.332086,10.0720524 120.318505,9.93624032 C120.277761,8.97197477 119.985769,8.13334794 119.442521,7.42033468 C118.899273,6.70732142 118.091203,6.35082014 117.018288,6.35082014 C115.918211,6.35082014 115.113536,6.70053092 114.604241,7.39996297 C114.094946,8.09939503 113.819931,8.99913636 113.779187,10.099214 L113.758815,10.6696217 L113.779187,11.2400295 C113.819931,12.3401071 114.094946,13.2398484 114.604241,13.9392805 C115.113536,14.6387125 115.918211,14.9884233 117.018288,14.9884233 Z" id="CreditSpring-Copy"></path>
            </g>
            <g id="Group-7">
                <path d="M17.6094213,2.38584295 C17.1146721,3.42374419 16.5927818,4.52886922 16.0437503,5.70121804 L0,5.70121804 L0,3.38584295 C6.76353751e-17,2.8335582 0.44771525,2.38584295 1,2.38584295 L17.6094213,2.38584295 Z M8.32851538,19.2942559 L1,19.2942559 C0.44771525,19.2942559 -6.76353751e-17,18.8465407 0,18.2942559 L0,9.34813064 L14.3483871,9.34813064 C13.6444423,10.8725356 12.9034249,12.4887629 12.125335,14.1968123 C9.9554257,14.587435 8.12688696,16.8778361 8.31732364,19.1782546 C8.32053256,19.2170174 8.32426567,19.2556864 8.32851538,19.2942559 Z" id="Combined-Shape"></path>
                <path d="M18.9289268,19.2942559 C18.9289668,19.2869683 18.9289868,19.2796761 18.9289868,19.2723794 C18.9289868,18.4379749 18.9289868,17.4413131 18.1474526,16.5566527 C18.6162221,13.9591063 19.0466515,11.5562656 19.4387406,9.34813064 L27.1860757,9.34813064 L27.1860757,18.2942559 C27.1860757,18.8465407 26.7383605,19.2942559 26.1860757,19.2942559 L18.9289268,19.2942559 Z M20.6594769,2.38584295 L26.1860757,2.38584295 C26.7383605,2.38584295 27.1860757,2.8335582 27.1860757,3.38584295 L27.1860757,5.70121804 L20.0825028,5.70121804 C20.2882619,4.52786837 20.4805866,3.42274334 20.6594769,2.38584295 Z" id="Combined-Shape" fill-opacity="0.494961504"></path>
                <path d="M13.2968865,15.673494 L20.1923055,-1.66533454e-14 L16.5148647,16.9325359 C17.0561571,17.568841 17.3827879,18.3934041 17.3827879,19.2942559 C17.3827879,21.3083901 15.7500095,22.9411685 13.7358753,22.9411685 C11.7217411,22.9411685 10.0889627,21.3083901 10.0889627,19.2942559 C10.0889627,17.4286938 11.4897425,15.8903013 13.2968865,15.673494 Z M13.7358753,20.9519434 C14.6513908,20.9519434 15.3935628,20.2097715 15.3935628,19.2942559 C15.3935628,18.3787404 14.6513908,17.6365684 13.7358753,17.6365684 C12.8203597,17.6365684 12.0781877,18.3787404 12.0781877,19.2942559 C12.0781877,20.2097715 12.8203597,20.9519434 13.7358753,20.9519434 Z" id="Combined-Shape"></path>
            </g>
        </g>
    </g>
</svg>